;TYPE=PLATED
;Layer: PTH_Through
;EasyEDA Pro v2.2.34.8, 2025-02-03 13:19:09
;Gerber Generator version 0.3
M48
METRIC,LZ,0000.00000
;Hole size 1 = 0.30500 METRIC
T01C0.30500
;Hole size 2 = 0.44999 METRIC
T02C0.44999
;Hole size 3 = 0.50002 METRIC
T03C0.50002
;Hole size 4 = 0.88900 METRIC
T04C0.88900
;Hole size 5 = 0.91440 METRIC
T05C0.91440
;Hole size 6 = 1.00000 METRIC
T06C1.00000
;Hole size 7 = 1.10002 METRIC
T07C1.10002
;Hole size 8 = 1.30002 METRIC
T08C1.30002
%
G05
G90
T01
X34.214Y95.961
X39.294Y95.961
X44.374Y95.961
X49.454Y95.961
X54.534Y95.961
X59.614Y95.961
X64.694Y95.961
X69.774Y95.961
X74.854Y95.961
X79.934Y95.961
X85.014Y95.961
X90.094Y95.961
X95.174Y95.961
X100.254Y95.961
X105.334Y95.961
X110.414Y95.961
X34.214Y90.881
X39.294Y90.881
X44.374Y90.881
X49.454Y90.881
X54.534Y90.881
X59.614Y90.881
X64.694Y90.881
X69.774Y90.881
X74.854Y90.881
X79.934Y90.881
X85.014Y90.881
X90.094Y90.881
X95.174Y90.881
X100.254Y90.881
X105.334Y90.881
X110.414Y90.881
X34.214Y85.801
X39.294Y85.801
X44.374Y85.801
X49.454Y85.801
X54.534Y85.801
X59.614Y85.801
X69.774Y85.801
X74.854Y85.801
X79.934Y85.801
X85.014Y85.801
X90.094Y85.801
X95.174Y85.801
X100.254Y85.801
X105.334Y85.801
X110.414Y85.801
X34.214Y80.721
X39.294Y80.721
X44.374Y80.721
X49.454Y80.721
X54.534Y80.721
X74.854Y80.721
X79.934Y80.721
X85.014Y80.721
X90.094Y80.721
X95.174Y80.721
X100.254Y80.721
X105.334Y80.721
X110.414Y80.721
X34.214Y75.641
X39.294Y75.641
X44.374Y75.641
X49.454Y75.641
X54.534Y75.641
X59.614Y75.641
X64.694Y75.641
X100.254Y75.641
X105.334Y75.641
X110.414Y75.641
X34.214Y70.561
X39.294Y70.561
X49.454Y73.228
X49.454Y70.561
X54.534Y70.561
X90.094Y70.561
X95.174Y70.561
X105.334Y70.561
X110.414Y70.561
X39.294Y65.481
X44.374Y65.481
X49.454Y65.481
X54.534Y65.481
X64.694Y65.481
X69.774Y65.481
X74.854Y65.481
X79.934Y65.481
X90.094Y65.481
X95.174Y65.481
X100.254Y65.481
X105.334Y65.481
X110.414Y65.481
X44.374Y60.401
X49.454Y60.401
X54.534Y60.401
X59.614Y60.401
X69.774Y60.401
X79.934Y60.401
X90.094Y60.401
X95.174Y60.401
X100.254Y60.401
X110.414Y60.401
X34.214Y55.321
X39.294Y55.321
X44.374Y55.321
X49.454Y55.321
X54.534Y55.321
X59.614Y55.321
X64.694Y55.321
X69.774Y55.321
X79.934Y55.321
X90.094Y55.321
X95.174Y55.321
X100.254Y55.321
X110.414Y55.321
X34.214Y50.241
X39.294Y50.241
X44.374Y50.241
X49.454Y50.241
X54.534Y50.241
X59.614Y50.241
X64.694Y50.241
X110.414Y50.241
X34.214Y45.161
X49.454Y45.161
X54.534Y45.161
X64.694Y45.161
X110.414Y45.161
X34.214Y40.081
X38.786Y40.081
X44.374Y40.081
X49.454Y40.081
X54.534Y40.081
X59.614Y40.081
X69.774Y40.081
X74.854Y40.081
X85.014Y40.081
X90.094Y40.081
X95.174Y40.081
X100.254Y40.081
X110.414Y40.081
X34.214Y35.001
X38.786Y35.001
X44.374Y35.001
X44.374Y32.08
X54.534Y35.001
X59.614Y35.001
X69.774Y35.001
X95.174Y35.001
X105.334Y35.001
X110.414Y35.001
X34.214Y29.921
X38.659Y29.921
X44.374Y29.921
X49.454Y29.921
X57.201Y29.921
X59.614Y29.921
X64.694Y29.921
X79.934Y29.921
X90.094Y29.921
X95.174Y29.921
X100.254Y29.921
X105.334Y29.921
X110.414Y29.921
X34.214Y24.841
X39.294Y24.841
X44.374Y24.841
X49.454Y24.841
X54.534Y24.841
X59.614Y24.841
X64.694Y24.841
X69.774Y24.841
X74.854Y24.841
X79.934Y24.841
X85.014Y24.841
X90.094Y24.841
X95.174Y24.841
X100.254Y24.841
X105.334Y24.841
X110.414Y24.841
T02
X51.05497Y94.28922G85X51.60498Y94.28922
X47.45502Y94.28927G85X48.00503Y94.28927
T03
X45.155Y97.68901G85X45.155Y98.28898
X53.905Y97.68898G85X53.905Y98.28898
T04
X31.623Y64.897
X31.623Y62.357
X31.623Y59.817
X31.623Y57.277
T05
X74.00597Y29.083
X85.506Y29.083
X69.41833Y29.337
X66.87833Y29.337
T06
X90.8561Y32.24296
X98.45609Y32.24296
X71.17824Y80.39085
X71.17824Y77.85085
X71.17824Y75.31085
X71.18078Y72.77085
X57.91197Y39.87805
X57.91197Y42.41805
X57.91197Y44.95805
X57.91197Y47.49805
X57.91197Y50.03803
X57.91197Y52.57803
X57.91197Y55.11803
X57.91197Y57.65803
X57.91197Y60.19803
X57.91197Y62.738
X57.91197Y65.278
X57.91197Y67.818
X57.91197Y70.358
X57.91197Y72.898
X57.91197Y75.43797
X57.91197Y77.97797
X57.91197Y80.51797
X57.91197Y83.05797
X57.91197Y85.59797
X57.91197Y88.13795
X42.672Y88.13795
X42.672Y85.59797
X42.672Y83.05797
X42.672Y80.51797
X42.672Y77.97797
X42.672Y75.43797
X42.672Y72.898
X42.672Y70.358
X42.672Y67.818
X42.672Y65.278
X42.672Y62.738
X42.672Y60.19803
X42.672Y57.65803
X42.672Y55.11803
X42.672Y52.57803
X42.672Y50.03803
X42.672Y47.49805
X42.672Y44.95805
X42.672Y42.41805
X42.672Y39.87805
T07
X46.482Y27.305
X49.022Y27.305
X51.562Y27.305
X54.102Y27.305
T08
X71.18033Y51.00193
X66.68046Y51.00193
X66.68046Y44.50207
X71.18033Y44.50207
X80.10093Y50.74793
X75.60107Y50.74793
X75.60107Y44.24807
X80.10093Y44.24807
X90.51493Y50.74793
X86.01507Y50.74793
X86.01507Y44.24807
X90.51493Y44.24807
X101.05593Y50.74793
X96.55607Y50.74793
X96.55607Y44.24807
X101.05593Y44.24807
M30