;TYPE=PLATED
;Layer: PTH_Through_Via
;EasyEDA Pro v2.2.34.8, 2025-02-03 13:19:09
;Gerber Generator version 0.3
M48
METRIC,LZ,0000.00000
;Hole size 1 = 0.30500 METRIC
T01C0.30500
%
G05
G90
T01
X34.214Y95.961
X39.294Y95.961
X44.374Y95.961
X49.454Y95.961
X54.534Y95.961
X59.614Y95.961
X64.694Y95.961
X69.774Y95.961
X74.854Y95.961
X79.934Y95.961
X85.014Y95.961
X90.094Y95.961
X95.174Y95.961
X100.254Y95.961
X105.334Y95.961
X110.414Y95.961
X34.214Y90.881
X39.294Y90.881
X44.374Y90.881
X49.454Y90.881
X54.534Y90.881
X59.614Y90.881
X64.694Y90.881
X69.774Y90.881
X74.854Y90.881
X79.934Y90.881
X85.014Y90.881
X90.094Y90.881
X95.174Y90.881
X100.254Y90.881
X105.334Y90.881
X110.414Y90.881
X34.214Y85.801
X39.294Y85.801
X44.374Y85.801
X49.454Y85.801
X54.534Y85.801
X59.614Y85.801
X69.774Y85.801
X74.854Y85.801
X79.934Y85.801
X85.014Y85.801
X90.094Y85.801
X95.174Y85.801
X100.254Y85.801
X105.334Y85.801
X110.414Y85.801
X34.214Y80.721
X39.294Y80.721
X44.374Y80.721
X49.454Y80.721
X54.534Y80.721
X74.854Y80.721
X79.934Y80.721
X85.014Y80.721
X90.094Y80.721
X95.174Y80.721
X100.254Y80.721
X105.334Y80.721
X110.414Y80.721
X34.214Y75.641
X39.294Y75.641
X44.374Y75.641
X49.454Y75.641
X54.534Y75.641
X59.614Y75.641
X64.694Y75.641
X100.254Y75.641
X105.334Y75.641
X110.414Y75.641
X34.214Y70.561
X39.294Y70.561
X49.454Y73.228
X49.454Y70.561
X54.534Y70.561
X90.094Y70.561
X95.174Y70.561
X105.334Y70.561
X110.414Y70.561
X39.294Y65.481
X44.374Y65.481
X49.454Y65.481
X54.534Y65.481
X64.694Y65.481
X69.774Y65.481
X74.854Y65.481
X79.934Y65.481
X90.094Y65.481
X95.174Y65.481
X100.254Y65.481
X105.334Y65.481
X110.414Y65.481
X44.374Y60.401
X49.454Y60.401
X54.534Y60.401
X59.614Y60.401
X69.774Y60.401
X79.934Y60.401
X90.094Y60.401
X95.174Y60.401
X100.254Y60.401
X110.414Y60.401
X34.214Y55.321
X39.294Y55.321
X44.374Y55.321
X49.454Y55.321
X54.534Y55.321
X59.614Y55.321
X64.694Y55.321
X69.774Y55.321
X79.934Y55.321
X90.094Y55.321
X95.174Y55.321
X100.254Y55.321
X110.414Y55.321
X34.214Y50.241
X39.294Y50.241
X44.374Y50.241
X49.454Y50.241
X54.534Y50.241
X59.614Y50.241
X64.694Y50.241
X110.414Y50.241
X34.214Y45.161
X49.454Y45.161
X54.534Y45.161
X64.694Y45.161
X110.414Y45.161
X34.214Y40.081
X38.786Y40.081
X44.374Y40.081
X49.454Y40.081
X54.534Y40.081
X59.614Y40.081
X69.774Y40.081
X74.854Y40.081
X85.014Y40.081
X90.094Y40.081
X95.174Y40.081
X100.254Y40.081
X110.414Y40.081
X34.214Y35.001
X38.786Y35.001
X44.374Y35.001
X44.374Y32.08
X54.534Y35.001
X59.614Y35.001
X69.774Y35.001
X95.174Y35.001
X105.334Y35.001
X110.414Y35.001
X34.214Y29.921
X38.659Y29.921
X44.374Y29.921
X49.454Y29.921
X57.201Y29.921
X59.614Y29.921
X64.694Y29.921
X79.934Y29.921
X90.094Y29.921
X95.174Y29.921
X100.254Y29.921
X105.334Y29.921
X110.414Y29.921
X34.214Y24.841
X39.294Y24.841
X44.374Y24.841
X49.454Y24.841
X54.534Y24.841
X59.614Y24.841
X64.694Y24.841
X69.774Y24.841
X74.854Y24.841
X79.934Y24.841
X85.014Y24.841
X90.094Y24.841
X95.174Y24.841
X100.254Y24.841
X105.334Y24.841
X110.414Y24.841
M30