G04 Layer: TopSilkscreenLayer*
G04 EasyEDA Pro v2.2.34.8, 2025-02-03 13:19:09*
G04 Gerber Generator version 0.3*
G04 Scale: 100 percent, Rotated: No, Reflected: No*
G04 Dimensions in millimeters*
G04 Leading zeros omitted, absolute positions, 4 integers and 5 decimals*
%FSLAX45Y45*%
%MOMM*%
%ADD10C,0.1524*%
%ADD11C,0.25*%
%ADD12C,0.254*%
%ADD13C,0.2032*%
%ADD14C,0.203*%
G75*


G04 Text Start*
G54D10*
G01X9870981Y3016270D02*
G01X9870981Y3079262D01*
G01X9902477Y3047766D02*
G01X9839485Y3047766D01*
G01X9113520Y4018534D02*
G01X9113520Y3953510D01*
G01X9113520Y4018534D02*
G01X9141460Y4018534D01*
G01X9150604Y4015486D01*
G01X9153652Y4012438D01*
G01X9156954Y4006088D01*
G01X9156954Y3999992D01*
G01X9153652Y3993896D01*
G01X9150604Y3990848D01*
G01X9141460Y3987546D01*
G01X9113520Y3987546D02*
G01X9141460Y3987546D01*
G01X9150604Y3984498D01*
G01X9153652Y3981450D01*
G01X9156954Y3975354D01*
G01X9156954Y3965956D01*
G01X9153652Y3959860D01*
G01X9150604Y3956558D01*
G01X9141460Y3953510D01*
G01X9113520Y3953510D01*
G01X9187180Y4018534D02*
G01X9187180Y3972052D01*
G01X9190228Y3962908D01*
G01X9196324Y3956558D01*
G01X9205722Y3953510D01*
G01X9211818Y3953510D01*
G01X9221216Y3956558D01*
G01X9227312Y3962908D01*
G01X9230360Y3972052D01*
G01X9230360Y4018534D01*
G01X9303766Y4018534D02*
G01X9260586Y3953510D01*
G01X9260586Y4018534D02*
G01X9303766Y4018534D01*
G01X9260586Y3953510D02*
G01X9303766Y3953510D01*
G01X9377172Y4018534D02*
G01X9333992Y3953510D01*
G01X9333992Y4018534D02*
G01X9377172Y4018534D01*
G01X9333992Y3953510D02*
G01X9377172Y3953510D01*
G01X9407398Y4018534D02*
G01X9407398Y3953510D01*
G01X9407398Y4018534D02*
G01X9447530Y4018534D01*
G01X9407398Y3987546D02*
G01X9432036Y3987546D01*
G01X9407398Y3953510D02*
G01X9447530Y3953510D01*
G01X9477756Y4018534D02*
G01X9477756Y3953510D01*
G01X9477756Y4018534D02*
G01X9505442Y4018534D01*
G01X9514840Y4015486D01*
G01X9517888Y4012438D01*
G01X9520936Y4006088D01*
G01X9520936Y3999992D01*
G01X9517888Y3993896D01*
G01X9514840Y3990848D01*
G01X9505442Y3987546D01*
G01X9477756Y3987546D01*
G01X9499346Y3987546D02*
G01X9520936Y3953510D01*
G01X9551162Y4006088D02*
G01X9557258Y4009390D01*
G01X9566402Y4018534D01*
G01X9566402Y3953510D01*
G54D11*
G01X8107210Y7094982D02*
G01X8169440Y7094982D01*
G01X8107210Y7134352D02*
G01X8169440Y7134352D01*
G01X8121942Y7218172D02*
G01X8116100Y7215124D01*
G01X8110004Y7209282D01*
G01X8107210Y7203186D01*
G01X8107210Y7191502D01*
G01X8110004Y7185406D01*
G01X8116100Y7179564D01*
G01X8121942Y7176516D01*
G01X8130832Y7173722D01*
G01X8145564Y7173722D01*
G01X8154708Y7176516D01*
G01X8160550Y7179564D01*
G01X8166392Y7185406D01*
G01X8169440Y7191502D01*
G01X8169440Y7203186D01*
G01X8166392Y7209282D01*
G01X8160550Y7215124D01*
G01X8154708Y7218172D01*
G01X8142770Y7257542D02*
G01X8142770Y7310882D01*
G01X8121942Y7394702D02*
G01X8116100Y7391654D01*
G01X8110004Y7385812D01*
G01X8107210Y7379716D01*
G01X8107210Y7368032D01*
G01X8110004Y7361936D01*
G01X8116100Y7356094D01*
G01X8121942Y7353046D01*
G01X8130832Y7350252D01*
G01X8145564Y7350252D01*
G01X8154708Y7353046D01*
G01X8160550Y7356094D01*
G01X8166392Y7361936D01*
G01X8169440Y7368032D01*
G01X8169440Y7379716D01*
G01X8166392Y7385812D01*
G01X8160550Y7391654D01*
G01X8154708Y7394702D01*
G01X8127784Y7448804D02*
G01X8130832Y7442962D01*
G01X8136674Y7436866D01*
G01X8145564Y7434072D01*
G01X8151660Y7434072D01*
G01X8160550Y7436866D01*
G01X8166392Y7442962D01*
G01X8169440Y7448804D01*
G01X8169440Y7457694D01*
G01X8166392Y7463536D01*
G01X8160550Y7469632D01*
G01X8151660Y7472426D01*
G01X8145564Y7472426D01*
G01X8136674Y7469632D01*
G01X8130832Y7463536D01*
G01X8127784Y7457694D01*
G01X8127784Y7448804D01*
G01X8127784Y7511796D02*
G01X8169440Y7511796D01*
G01X8139722Y7511796D02*
G01X8130832Y7520686D01*
G01X8127784Y7526528D01*
G01X8127784Y7535418D01*
G01X8130832Y7541260D01*
G01X8139722Y7544308D01*
G01X8169440Y7544308D01*
G01X8127784Y7583678D02*
G01X8169440Y7583678D01*
G01X8139722Y7583678D02*
G01X8130832Y7592568D01*
G01X8127784Y7598410D01*
G01X8127784Y7607300D01*
G01X8130832Y7613142D01*
G01X8139722Y7616190D01*
G01X8169440Y7616190D01*
G01X8145564Y7655560D02*
G01X8145564Y7691120D01*
G01X8139722Y7691120D01*
G01X8133880Y7688072D01*
G01X8130832Y7685024D01*
G01X8127784Y7679182D01*
G01X8127784Y7670292D01*
G01X8130832Y7664450D01*
G01X8136674Y7658354D01*
G01X8145564Y7655560D01*
G01X8151660Y7655560D01*
G01X8160550Y7658354D01*
G01X8166392Y7664450D01*
G01X8169440Y7670292D01*
G01X8169440Y7679182D01*
G01X8166392Y7685024D01*
G01X8160550Y7691120D01*
G01X8136674Y7766050D02*
G01X8130832Y7759954D01*
G01X8127784Y7754112D01*
G01X8127784Y7745222D01*
G01X8130832Y7739380D01*
G01X8136674Y7733284D01*
G01X8145564Y7730490D01*
G01X8151660Y7730490D01*
G01X8160550Y7733284D01*
G01X8166392Y7739380D01*
G01X8169440Y7745222D01*
G01X8169440Y7754112D01*
G01X8166392Y7759954D01*
G01X8160550Y7766050D01*
G01X8107210Y7814310D02*
G01X8157502Y7814310D01*
G01X8166392Y7817104D01*
G01X8169440Y7823200D01*
G01X8169440Y7829042D01*
G01X8127784Y7805420D02*
G01X8127784Y7825994D01*
G01X8127784Y7883144D02*
G01X8130832Y7877302D01*
G01X8136674Y7871206D01*
G01X8145564Y7868412D01*
G01X8151660Y7868412D01*
G01X8160550Y7871206D01*
G01X8166392Y7877302D01*
G01X8169440Y7883144D01*
G01X8169440Y7892034D01*
G01X8166392Y7897876D01*
G01X8160550Y7903972D01*
G01X8151660Y7906766D01*
G01X8145564Y7906766D01*
G01X8136674Y7903972D01*
G01X8130832Y7897876D01*
G01X8127784Y7892034D01*
G01X8127784Y7883144D01*
G01X8127784Y7946136D02*
G01X8169440Y7946136D01*
G01X8145564Y7946136D02*
G01X8136674Y7948930D01*
G01X8130832Y7955026D01*
G01X8127784Y7960868D01*
G01X8127784Y7969758D01*
G01X7882446Y7288530D02*
G01X7885240Y7279640D01*
G01X7894130Y7273798D01*
G01X7909116Y7270750D01*
G01X7918006Y7270750D01*
G01X7932738Y7273798D01*
G01X7941628Y7279640D01*
G01X7944676Y7288530D01*
G01X7944676Y7294626D01*
G01X7941628Y7303516D01*
G01X7932738Y7309358D01*
G01X7918006Y7312406D01*
G01X7909116Y7312406D01*
G01X7894130Y7309358D01*
G01X7885240Y7303516D01*
G01X7882446Y7294626D01*
G01X7882446Y7288530D01*
G01X7929944Y7354570D02*
G01X7932738Y7351776D01*
G01X7935786Y7354570D01*
G01X7932738Y7357618D01*
G01X7929944Y7354570D01*
G01X7903020Y7435342D02*
G01X7911910Y7432548D01*
G01X7918006Y7426452D01*
G01X7920800Y7417562D01*
G01X7920800Y7414768D01*
G01X7918006Y7405878D01*
G01X7911910Y7399782D01*
G01X7903020Y7396988D01*
G01X7900226Y7396988D01*
G01X7891336Y7399782D01*
G01X7885240Y7405878D01*
G01X7882446Y7414768D01*
G01X7882446Y7417562D01*
G01X7885240Y7426452D01*
G01X7891336Y7432548D01*
G01X7903020Y7435342D01*
G01X7918006Y7435342D01*
G01X7932738Y7432548D01*
G01X7941628Y7426452D01*
G01X7944676Y7417562D01*
G01X7944676Y7411720D01*
G01X7941628Y7402830D01*
G01X7935786Y7399782D01*
G01X7891336Y7510272D02*
G01X7885240Y7507224D01*
G01X7882446Y7498334D01*
G01X7882446Y7492492D01*
G01X7885240Y7483602D01*
G01X7894130Y7477506D01*
G01X7909116Y7474712D01*
G01X7923848Y7474712D01*
G01X7935786Y7477506D01*
G01X7941628Y7483602D01*
G01X7944676Y7492492D01*
G01X7944676Y7495286D01*
G01X7941628Y7504176D01*
G01X7935786Y7510272D01*
G01X7926896Y7513066D01*
G01X7923848Y7513066D01*
G01X7914958Y7510272D01*
G01X7909116Y7504176D01*
G01X7906068Y7495286D01*
G01X7906068Y7492492D01*
G01X7909116Y7483602D01*
G01X7914958Y7477506D01*
G01X7923848Y7474712D01*
G01X7873302Y7558278D02*
G01X7891336Y7558278D01*
G01X7882446Y7615428D02*
G01X7885240Y7609332D01*
G01X7891336Y7603490D01*
G01X7897178Y7600442D01*
G01X7906068Y7597648D01*
G01X7920800Y7597648D01*
G01X7929944Y7600442D01*
G01X7935786Y7603490D01*
G01X7941628Y7609332D01*
G01X7944676Y7615428D01*
G01X7944676Y7627112D01*
G01X7941628Y7633208D01*
G01X7935786Y7639050D01*
G01X7929944Y7642098D01*
G01X7920800Y7645146D01*
G01X7906068Y7645146D01*
G01X7897178Y7642098D01*
G01X7891336Y7639050D01*
G01X7885240Y7633208D01*
G01X7882446Y7627112D01*
G01X7882446Y7615428D01*
G01X7882446Y7684516D02*
G01X7944676Y7684516D01*
G01X7944676Y7684516D02*
G01X7944676Y7720076D01*
G01X7882446Y7759446D02*
G01X7944676Y7759446D01*
G01X7882446Y7759446D02*
G01X7882446Y7797800D01*
G01X7911910Y7759446D02*
G01X7911910Y7783068D01*
G01X7944676Y7759446D02*
G01X7944676Y7797800D01*
G01X7882446Y7837170D02*
G01X7944676Y7837170D01*
G01X7882446Y7837170D02*
G01X7882446Y7857744D01*
G01X7885240Y7866634D01*
G01X7891336Y7872730D01*
G01X7897178Y7875524D01*
G01X7906068Y7878572D01*
G01X7920800Y7878572D01*
G01X7929944Y7875524D01*
G01X7935786Y7872730D01*
G01X7941628Y7866634D01*
G01X7944676Y7857744D01*
G01X7944676Y7837170D01*
G54D10*
G01X6848094Y6171435D02*
G01X6851142Y6165339D01*
G01X6857238Y6158989D01*
G01X6863588Y6155941D01*
G01X6872732Y6152893D01*
G01X6888226Y6152893D01*
G01X6897624Y6155941D01*
G01X6903720Y6158989D01*
G01X6910070Y6165339D01*
G01X6913118Y6171435D01*
G01X6913118Y6183881D01*
G01X6910070Y6189977D01*
G01X6903720Y6196327D01*
G01X6897624Y6199375D01*
G01X6888226Y6202423D01*
G01X6872732Y6202423D01*
G01X6863588Y6199375D01*
G01X6857238Y6196327D01*
G01X6851142Y6189977D01*
G01X6848094Y6183881D01*
G01X6848094Y6171435D01*
G01X6848094Y6232649D02*
G01X6913118Y6232649D01*
G01X6913118Y6232649D02*
G01X6913118Y6269733D01*
G01X6848094Y6299959D02*
G01X6913118Y6299959D01*
G01X6848094Y6299959D02*
G01X6848094Y6340091D01*
G01X6879082Y6299959D02*
G01X6879082Y6324597D01*
G01X6913118Y6299959D02*
G01X6913118Y6340091D01*
G01X6848094Y6370317D02*
G01X6913118Y6370317D01*
G01X6848094Y6370317D02*
G01X6848094Y6391907D01*
G01X6851142Y6401051D01*
G01X6857238Y6407401D01*
G01X6863588Y6410449D01*
G01X6872732Y6413497D01*
G01X6888226Y6413497D01*
G01X6897624Y6410449D01*
G01X6903720Y6407401D01*
G01X6910070Y6401051D01*
G01X6913118Y6391907D01*
G01X6913118Y6370317D01*
G01X6860540Y6443723D02*
G01X6857238Y6449819D01*
G01X6848094Y6458963D01*
G01X6913118Y6458963D01*
G01X7332017Y3142234D02*
G01X7332017Y3077210D01*
G01X7332017Y3142234D02*
G01X7359957Y3142234D01*
G01X7369101Y3139186D01*
G01X7372149Y3136138D01*
G01X7375451Y3129788D01*
G01X7375451Y3123692D01*
G01X7372149Y3117596D01*
G01X7369101Y3114548D01*
G01X7359957Y3111246D01*
G01X7332017Y3111246D01*
G01X7353607Y3111246D02*
G01X7375451Y3077210D01*
G01X7405677Y3129788D02*
G01X7411773Y3133090D01*
G01X7420917Y3142234D01*
G01X7420917Y3077210D01*
G01X3102610Y5296154D02*
G01X3096514Y5289804D01*
G01X3093466Y5280660D01*
G01X3093466Y5268214D01*
G01X3096514Y5258816D01*
G01X3102610Y5252720D01*
G01X3108960Y5252720D01*
G01X3115056Y5255768D01*
G01X3118104Y5258816D01*
G01X3121152Y5265166D01*
G01X3127502Y5283708D01*
G01X3130550Y5289804D01*
G01X3133598Y5292852D01*
G01X3139948Y5296154D01*
G01X3149092Y5296154D01*
G01X3155442Y5289804D01*
G01X3158490Y5280660D01*
G01X3158490Y5268214D01*
G01X3155442Y5258816D01*
G01X3149092Y5252720D01*
G01X3093466Y5326380D02*
G01X3158490Y5326380D01*
G01X3093466Y5326380D02*
G01X3093466Y5354066D01*
G01X3096514Y5363464D01*
G01X3099562Y5366512D01*
G01X3105912Y5369560D01*
G01X3112008Y5369560D01*
G01X3118104Y5366512D01*
G01X3121152Y5363464D01*
G01X3124454Y5354066D01*
G01X3124454Y5326380D01*
G01X3124454Y5347970D02*
G01X3158490Y5369560D01*
G01X3093466Y5418328D02*
G01X3096514Y5408930D01*
G01X3105912Y5402834D01*
G01X3121152Y5399786D01*
G01X3130550Y5399786D01*
G01X3146044Y5402834D01*
G01X3155442Y5408930D01*
G01X3158490Y5418328D01*
G01X3158490Y5424424D01*
G01X3155442Y5433822D01*
G01X3146044Y5439918D01*
G01X3130550Y5442966D01*
G01X3121152Y5442966D01*
G01X3105912Y5439918D01*
G01X3096514Y5433822D01*
G01X3093466Y5424424D01*
G01X3093466Y5418328D01*
G01X3093466Y5503926D02*
G01X3136646Y5473192D01*
G01X3136646Y5519420D01*
G01X3093466Y5503926D02*
G01X3158490Y5503926D01*
G01X3766569Y3728725D02*
G01X3813051Y3728725D01*
G01X3822195Y3731773D01*
G01X3828545Y3738123D01*
G01X3831593Y3747267D01*
G01X3831593Y3753617D01*
G01X3828545Y3762761D01*
G01X3822195Y3768857D01*
G01X3813051Y3772159D01*
G01X3766569Y3772159D01*
G01X3779015Y3802385D02*
G01X3775713Y3808481D01*
G01X3766569Y3817625D01*
G01X3831593Y3817625D01*
G01X6461112Y4357827D02*
G01X6507594Y4357827D01*
G01X6516738Y4360875D01*
G01X6523088Y4367225D01*
G01X6526136Y4376369D01*
G01X6526136Y4382719D01*
G01X6523088Y4391863D01*
G01X6516738Y4397959D01*
G01X6507594Y4401261D01*
G01X6461112Y4401261D01*
G01X6476606Y4434535D02*
G01X6473558Y4434535D01*
G01X6467208Y4437583D01*
G01X6464160Y4440631D01*
G01X6461112Y4446727D01*
G01X6461112Y4459173D01*
G01X6464160Y4465523D01*
G01X6467208Y4468571D01*
G01X6473558Y4471619D01*
G01X6479654Y4471619D01*
G01X6485750Y4468571D01*
G01X6495148Y4462221D01*
G01X6526136Y4431487D01*
G01X6526136Y4474667D01*
G01X7353173Y4332427D02*
G01X7399655Y4332427D01*
G01X7408799Y4335475D01*
G01X7415149Y4341825D01*
G01X7418197Y4350969D01*
G01X7418197Y4357319D01*
G01X7415149Y4366463D01*
G01X7408799Y4372559D01*
G01X7399655Y4375861D01*
G01X7353173Y4375861D01*
G01X7353173Y4412183D02*
G01X7353173Y4446219D01*
G01X7377811Y4427677D01*
G01X7377811Y4436821D01*
G01X7380859Y4443171D01*
G01X7384161Y4446219D01*
G01X7393305Y4449267D01*
G01X7399655Y4449267D01*
G01X7408799Y4446219D01*
G01X7415149Y4440123D01*
G01X7418197Y4430725D01*
G01X7418197Y4421327D01*
G01X7415149Y4412183D01*
G01X7411847Y4409135D01*
G01X7405751Y4406087D01*
G01X8394573Y4332427D02*
G01X8441055Y4332427D01*
G01X8450199Y4335475D01*
G01X8456549Y4341825D01*
G01X8459597Y4350969D01*
G01X8459597Y4357319D01*
G01X8456549Y4366463D01*
G01X8450199Y4372559D01*
G01X8441055Y4375861D01*
G01X8394573Y4375861D01*
G01X8394573Y4436821D02*
G01X8437753Y4406087D01*
G01X8437753Y4452315D01*
G01X8394573Y4436821D02*
G01X8459597Y4436821D01*
G01X9448673Y4332427D02*
G01X9495155Y4332427D01*
G01X9504299Y4335475D01*
G01X9510649Y4341825D01*
G01X9513697Y4350969D01*
G01X9513697Y4357319D01*
G01X9510649Y4366463D01*
G01X9504299Y4372559D01*
G01X9495155Y4375861D01*
G01X9448673Y4375861D01*
G01X9448673Y4443171D02*
G01X9448673Y4412183D01*
G01X9476359Y4409135D01*
G01X9473311Y4412183D01*
G01X9470263Y4421327D01*
G01X9470263Y4430725D01*
G01X9473311Y4440123D01*
G01X9479661Y4446219D01*
G01X9488805Y4449267D01*
G01X9495155Y4449267D01*
G01X9504299Y4446219D01*
G01X9510649Y4440123D01*
G01X9513697Y4430725D01*
G01X9513697Y4421327D01*
G01X9510649Y4412183D01*
G01X9507347Y4409135D01*
G01X9501251Y4406087D01*
G01X7026323Y2598166D02*
G01X7026323Y2644648D01*
G01X7023275Y2653792D01*
G01X7016925Y2660142D01*
G01X7007781Y2663190D01*
G01X7001431Y2663190D01*
G01X6992287Y2660142D01*
G01X6986191Y2653792D01*
G01X6982889Y2644648D01*
G01X6982889Y2598166D01*
G01X6915579Y2607310D02*
G01X6918627Y2601214D01*
G01X6928025Y2598166D01*
G01X6934121Y2598166D01*
G01X6943519Y2601214D01*
G01X6949615Y2610612D01*
G01X6952663Y2625852D01*
G01X6952663Y2641346D01*
G01X6949615Y2653792D01*
G01X6943519Y2660142D01*
G01X6934121Y2663190D01*
G01X6931073Y2663190D01*
G01X6921929Y2660142D01*
G01X6915579Y2653792D01*
G01X6912531Y2644648D01*
G01X6912531Y2641346D01*
G01X6915579Y2632202D01*
G01X6921929Y2625852D01*
G01X6931073Y2622804D01*
G01X6934121Y2622804D01*
G01X6943519Y2625852D01*
G01X6949615Y2632202D01*
G01X6952663Y2641346D01*
G01X5432895Y9241587D02*
G01X5432895Y9288069D01*
G01X5429847Y9297213D01*
G01X5423497Y9303563D01*
G01X5414353Y9306611D01*
G01X5408003Y9306611D01*
G01X5398859Y9303563D01*
G01X5392763Y9297213D01*
G01X5389461Y9288069D01*
G01X5389461Y9241587D01*
G01X5316055Y9250731D02*
G01X5322151Y9244635D01*
G01X5331549Y9241587D01*
G01X5343995Y9241587D01*
G01X5353139Y9244635D01*
G01X5359235Y9250731D01*
G01X5359235Y9257081D01*
G01X5356187Y9263177D01*
G01X5353139Y9266225D01*
G01X5347043Y9269273D01*
G01X5328501Y9275623D01*
G01X5322151Y9278671D01*
G01X5319103Y9281719D01*
G01X5316055Y9288069D01*
G01X5316055Y9297213D01*
G01X5322151Y9303563D01*
G01X5331549Y9306611D01*
G01X5343995Y9306611D01*
G01X5353139Y9303563D01*
G01X5359235Y9297213D01*
G01X5285829Y9241587D02*
G01X5285829Y9306611D01*
G01X5285829Y9241587D02*
G01X5258143Y9241587D01*
G01X5248745Y9244635D01*
G01X5245697Y9247683D01*
G01X5242649Y9254033D01*
G01X5242649Y9260129D01*
G01X5245697Y9266225D01*
G01X5248745Y9269273D01*
G01X5258143Y9272575D01*
G01X5285829Y9272575D02*
G01X5258143Y9272575D01*
G01X5248745Y9275623D01*
G01X5245697Y9278671D01*
G01X5242649Y9284767D01*
G01X5242649Y9294165D01*
G01X5245697Y9300261D01*
G01X5248745Y9303563D01*
G01X5258143Y9306611D01*
G01X5285829Y9306611D01*
G01X5212423Y9254033D02*
G01X5206327Y9250731D01*
G01X5197183Y9241587D01*
G01X5197183Y9306611D01*
G01X5633720Y2773934D02*
G01X5633720Y2708910D01*
G01X5633720Y2773934D02*
G01X5661660Y2773934D01*
G01X5670804Y2770886D01*
G01X5673852Y2767838D01*
G01X5677154Y2761488D01*
G01X5677154Y2755392D01*
G01X5673852Y2749296D01*
G01X5670804Y2746248D01*
G01X5661660Y2742946D01*
G01X5633720Y2742946D02*
G01X5661660Y2742946D01*
G01X5670804Y2739898D01*
G01X5673852Y2736850D01*
G01X5677154Y2730754D01*
G01X5677154Y2721356D01*
G01X5673852Y2715260D01*
G01X5670804Y2711958D01*
G01X5661660Y2708910D01*
G01X5633720Y2708910D01*
G01X5707380Y2773934D02*
G01X5707380Y2708910D01*
G01X5737606Y2752344D02*
G01X5737606Y2721356D01*
G01X5740654Y2711958D01*
G01X5746750Y2708910D01*
G01X5756148Y2708910D01*
G01X5762244Y2711958D01*
G01X5771642Y2721356D01*
G01X5771642Y2752344D02*
G01X5771642Y2708910D01*
G01X5801868Y2733802D02*
G01X5838952Y2733802D01*
G01X5838952Y2739898D01*
G01X5835904Y2746248D01*
G01X5832602Y2749296D01*
G01X5826506Y2752344D01*
G01X5817108Y2752344D01*
G01X5811012Y2749296D01*
G01X5804916Y2742946D01*
G01X5801868Y2733802D01*
G01X5801868Y2727452D01*
G01X5804916Y2718308D01*
G01X5811012Y2711958D01*
G01X5817108Y2708910D01*
G01X5826506Y2708910D01*
G01X5832602Y2711958D01*
G01X5838952Y2718308D01*
G01X5890768Y2773934D02*
G01X5890768Y2708910D01*
G01X5869178Y2773934D02*
G01X5912358Y2773934D01*
G01X5957824Y2752344D02*
G01X5951728Y2749296D01*
G01X5945632Y2742946D01*
G01X5942584Y2733802D01*
G01X5942584Y2727452D01*
G01X5945632Y2718308D01*
G01X5951728Y2711958D01*
G01X5957824Y2708910D01*
G01X5967222Y2708910D01*
G01X5973318Y2711958D01*
G01X5979668Y2718308D01*
G01X5982716Y2727452D01*
G01X5982716Y2733802D01*
G01X5979668Y2742946D01*
G01X5973318Y2749296D01*
G01X5967222Y2752344D01*
G01X5957824Y2752344D01*
G01X6028182Y2752344D02*
G01X6022086Y2749296D01*
G01X6015990Y2742946D01*
G01X6012942Y2733802D01*
G01X6012942Y2727452D01*
G01X6015990Y2718308D01*
G01X6022086Y2711958D01*
G01X6028182Y2708910D01*
G01X6037580Y2708910D01*
G01X6043676Y2711958D01*
G01X6050026Y2718308D01*
G01X6053074Y2727452D01*
G01X6053074Y2733802D01*
G01X6050026Y2742946D01*
G01X6043676Y2749296D01*
G01X6037580Y2752344D01*
G01X6028182Y2752344D01*
G01X6092444Y2773934D02*
G01X6092444Y2721356D01*
G01X6095492Y2711958D01*
G01X6101842Y2708910D01*
G01X6107938Y2708910D01*
G01X6083300Y2752344D02*
G01X6104890Y2752344D01*
G01X6138164Y2773934D02*
G01X6138164Y2708910D01*
G01X6138164Y2739898D02*
G01X6147308Y2749296D01*
G01X6153404Y2752344D01*
G01X6162802Y2752344D01*
G01X6168898Y2749296D01*
G01X6172200Y2739898D01*
G01X6172200Y2708910D01*
G01X6202426Y2761488D02*
G01X6208522Y2764790D01*
G01X6217666Y2773934D01*
G01X6217666Y2708910D01*
G04 Text End*

G04 PolygonModel Start*
G54D12*
G01X9867900Y8357847D02*
G01X9867900Y9158204D01*
G01X9668002Y6957797D02*
G01X9668002Y8357847D01*
G01X9867803Y8357847D02*
G01X9667900Y8357847D01*
G01X9867900Y6957842D02*
G01X9668002Y6957842D01*
G01X7613142Y7403849D02*
G01X6978142Y7403849D01*
G01X6967858Y7657849D02*
G01X7613142Y7657849D01*
G01X7613142Y7911849D02*
G01X6978142Y7911849D01*
G01X7613142Y8182839D02*
G01X6967728Y8182839D01*
G01X7617844Y7132858D02*
G01X7617968Y7968231D01*
G01X7617968Y7968231D02*
G01X7617844Y8182839D01*
G01X6967858Y7132858D02*
G01X7613142Y7132858D01*
G01X6967880Y6158202D02*
G01X6967880Y8857841D01*
G01X9867900Y6457848D02*
G01X9867900Y6957842D01*
G01X7267849Y9158204D02*
G01X9867854Y9158204D01*
G01X6967880Y6158202D02*
G01X9567852Y6158202D01*
G01X6967728Y8857999D02*
G02X7267959Y9157970I299999J-28D01*
G01X9867900Y6457953D02*
G02X9567931Y6157973I-299999J20D01*
G01X7632697Y2908300D02*
G01X7505697Y2908300D01*
G01X8318500Y2908300D02*
G01X8445500Y2908300D01*
G01X8305797Y2870200D02*
G01X8305797Y2794000D01*
G01X8305797Y2794000D02*
G01X7645397Y2794000D01*
G01X7645397Y2794000D02*
G01X7645397Y2870200D01*
G01X7645400Y2946400D02*
G01X7645400Y3022600D01*
G01X7645400Y3022600D02*
G01X8305800Y3022600D01*
G01X8305800Y3022600D02*
G01X8305800Y2946400D01*
G54D13*
G01X3289300Y5600700D02*
G01X3035300Y5600700D01*
G01X3035300Y5600700D02*
G01X3035300Y6616700D01*
G01X3035300Y6616700D02*
G01X3289300Y6616700D01*
G01X3289300Y6616700D02*
G01X3289300Y6426200D01*
G54D14*
G01X3289300Y5600700D02*
G01X3289300Y6426200D01*
G54D12*
G01X5623654Y3733805D02*
G01X5506654Y3850805D01*
G01X5506654Y3850805D02*
G01X4629201Y3850805D01*
G01X4629201Y3850805D02*
G01X4549394Y3850805D01*
G01X4549394Y3850805D02*
G01X4432394Y3733805D01*
G01X4429201Y6400800D02*
G01X5029200Y5800801D01*
G01X5029200Y5800801D02*
G01X5629199Y6400800D01*
G01X5629199Y6400800D02*
G01X5029200Y7000799D01*
G01X5029200Y7000799D02*
G01X4429201Y6400800D01*
G01X3886203Y3733805D02*
G01X6172197Y3733805D01*
G01X3886203Y3733805D02*
G01X3886203Y9067795D01*
G01X3886203Y9067795D02*
G01X6172197Y9067795D01*
G01X6172197Y9067795D02*
G01X6172197Y3733805D01*
G01X7193039Y4547768D02*
G01X7193039Y5002632D01*
G01X6783040Y4475201D02*
G01X6993039Y4475201D01*
G01X6790240Y5085199D02*
G01X7003039Y5085199D01*
G01X6593040Y4575200D02*
G01X6593040Y5002632D01*
G01X8085099Y4522368D02*
G01X8085099Y4977232D01*
G01X7675100Y4449801D02*
G01X7885100Y4449801D01*
G01X7682301Y5059799D02*
G01X7895100Y5059799D01*
G01X7485101Y4549800D02*
G01X7485101Y4977232D01*
G01X9126499Y4522368D02*
G01X9126499Y4977232D01*
G01X8716500Y4449801D02*
G01X8926500Y4449801D01*
G01X8723701Y5059799D02*
G01X8936500Y5059799D01*
G01X8526501Y4549800D02*
G01X8526501Y4977232D01*
G01X10180599Y4522368D02*
G01X10180599Y4977232D01*
G01X9770600Y4449801D02*
G01X9980600Y4449801D01*
G01X9777801Y5059799D02*
G01X9990600Y5059799D01*
G01X9580601Y4549800D02*
G01X9580601Y4977232D01*
G01X6633914Y3017053D02*
G01X6634292Y3046517D01*
G01X6631788Y2819212D02*
G01X6631788Y2851765D01*
G01X6694541Y2844195D02*
G03X6929427Y2837010I120291J89504D01*
G01X6932158Y3027307D02*
G03X6699969Y3030309I-117324J-93607D01*
G01X6631788Y2819212D02*
G03X7021243Y2870398I183044J114488D01*
G01X7018033Y2997200D02*
G03X6634292Y3046517I-203200J-63498D01*
G01X4675464Y9412900D02*
G01X4507001Y9412900D01*
G01X4507001Y9412900D02*
G01X4507001Y9700082D01*
G01X5034854Y9415899D02*
G01X4871146Y9415899D01*
G01X5402999Y9700664D02*
G01X5402999Y9415899D01*
G01X5402999Y9415899D02*
G01X5231145Y9415899D01*
G01X4507001Y9897715D02*
G01X4507001Y10054897D01*
G01X4507001Y10054897D02*
G01X5402999Y10054897D01*
G01X5402999Y10054897D02*
G01X5402999Y9897133D01*
G01X5558201Y2857500D02*
G01X5558201Y2603500D01*
G01X4500199Y2857500D02*
G01X5558201Y2857500D01*
G01X4777552Y2857500D02*
G01X4777552Y2603500D01*
G01X4500199Y2603500D02*
G01X5558201Y2603500D01*
G01X4500199Y2857500D02*
G01X4500199Y2603500D01*

G04 Rect Start*
G01X5629196Y8600801D02*
G01X4429199Y8600801D01*
G01X4429199Y8800800D01*
G01X5629196Y8800800D01*
G01X5629196Y8600801D01*
G04 Rect End*

G04 Circle Start*
G01X9338622Y3224296D02*
G03X9592622Y3224296I127000J0D01*
G03X9338622Y3224296I-127000J0D01*
G01X8865624Y3224296D02*
G03X10065621Y3224296I599999J0D01*
G03X8865624Y3224296I-599999J0D01*
G01X6723037Y4775200D02*
G03X7063042Y4775200I170002J0D01*
G03X6723037Y4775200I-170002J0D01*
G01X6999872Y4964989D02*
G03X7085876Y4964989I43002J0D01*
G03X6999872Y4964989I-43002J0D01*
G01X6699872Y4585005D02*
G03X6785877Y4585005I43002J0D01*
G03X6699872Y4585005I-43002J0D01*
G01X7000024Y4585208D02*
G03X7086029Y4585208I43002J0D01*
G03X7000024Y4585208I-43002J0D01*
G01X6697129Y4962373D02*
G03X6783134Y4962373I43002J0D01*
G03X6697129Y4962373I-43002J0D01*
G01X7615098Y4749800D02*
G03X7955102Y4749800I170002J0D01*
G03X7615098Y4749800I-170002J0D01*
G01X7891932Y4939589D02*
G03X7977937Y4939589I43002J0D01*
G03X7891932Y4939589I-43002J0D01*
G01X7591933Y4559605D02*
G03X7677937Y4559605I43002J0D01*
G03X7591933Y4559605I-43002J0D01*
G01X7892085Y4559808D02*
G03X7978089Y4559808I43002J0D01*
G03X7892085Y4559808I-43002J0D01*
G01X7589190Y4936973D02*
G03X7675194Y4936973I43002J0D01*
G03X7589190Y4936973I-43002J0D01*
G01X8656498Y4749800D02*
G03X8996502Y4749800I170002J0D01*
G03X8656498Y4749800I-170002J0D01*
G01X8933332Y4939589D02*
G03X9019337Y4939589I43002J0D01*
G03X8933332Y4939589I-43002J0D01*
G01X8633333Y4559605D02*
G03X8719337Y4559605I43002J0D01*
G03X8633333Y4559605I-43002J0D01*
G01X8933485Y4559808D02*
G03X9019489Y4559808I43002J0D01*
G03X8933485Y4559808I-43002J0D01*
G01X8630590Y4936973D02*
G03X8716594Y4936973I43002J0D01*
G03X8630590Y4936973I-43002J0D01*
G01X9710598Y4749800D02*
G03X10050602Y4749800I170002J0D01*
G03X9710598Y4749800I-170002J0D01*
G01X9987432Y4939589D02*
G03X10073437Y4939589I43002J0D01*
G03X9987432Y4939589I-43002J0D01*
G01X9687433Y4559605D02*
G03X9773437Y4559605I43002J0D01*
G03X9687433Y4559605I-43002J0D01*
G01X9987585Y4559808D02*
G03X10073589Y4559808I43002J0D01*
G03X9987585Y4559808I-43002J0D01*
G01X9684690Y4936973D02*
G03X9770694Y4936973I43002J0D01*
G03X9684690Y4936973I-43002J0D01*
G01X5229301Y9373921D02*
G03X5254701Y9373921I12700J0D01*
G03X5229301Y9373921I-12700J0D01*
G04 Circle End*

M02*

