G04 Layer: TopLayer*
G04 EasyEDA Pro v2.2.34.8, 2025-02-03 13:19:09*
G04 Gerber Generator version 0.3*
G04 Scale: 100 percent, Rotated: No, Reflected: No*
G04 Dimensions in millimeters*
G04 Leading zeros omitted, absolute positions, 4 integers and 5 decimals*
%FSLAX45Y45*%
%MOMM*%
%ADD10C,0.2032*%
%ADD11C,1.8*%
%ADD12C,1.65001*%
%ADD13C,1.524*%
%ADD14R,1.5748X1.5748*%
%ADD15C,1.5748*%
%ADD16C,1.6*%
%ADD17C,2.0*%
%ADD18O,1.5252X1.0*%
%ADD19O,1.524X1.0*%
%ADD20O,1.0X1.524*%
%ADD21R,1.7X1.7*%
%ADD22C,1.7*%
%ADD23C,0.61*%
%ADD24C,0.762*%
G75*


G04 Copper Start*
G36*
G01X2982214Y9847300D02*
G02X3246400Y10111486I264186J0D01*
G01X10876000Y10111486D01*
G02X11140186Y9847300I0J-264186D01*
G01X11140186Y2522500D01*
G02X10876000Y2258314I-264186J0D01*
G01X3246400Y2258314D01*
G02X2982214Y2522500I0J264186D01*
G01X2982214Y9847300D01*
G37*
%LPC*%
G36*
G01X3249818Y6309614D02*
G03X3047746Y6235700I-87518J-73914D01*
G03X3249818Y6161786I114554J0D01*
G01X4229092Y6161786D01*
G03X4236435Y6162152I0J73914D01*
G03X4369176Y6328698I30763J111653D01*
G03X4157059Y6309614I-101978J-54893D01*
G01X3249818Y6309614D01*
G37*
G36*
G01X3047746Y6410960D02*
G03X3083560Y6375146I35814J0D01*
G01X3241040Y6375146D01*
G03X3276854Y6410960I0J35814D01*
G01X3276854Y6568440D01*
G03X3241040Y6604254I-35814J0D01*
G01X3083560Y6604254D01*
G03X3047746Y6568440I0J-35814D01*
G01X3047746Y6410960D01*
G37*
G36*
G01X3249818Y6055614D02*
G03X3047746Y5981700I-87518J-73914D01*
G03X3249818Y5907786I114554J0D01*
G01X4229092Y5907786D01*
G03X4236435Y5908152I0J73914D01*
G03X4369176Y6074698I30763J111653D01*
G03X4157059Y6055614I-101978J-54893D01*
G01X3249818Y6055614D01*
G37*
G36*
G01X4024435Y4421065D02*
G03X4002786Y4368800I52265J-52265D01*
G01X4002786Y2984500D01*
G03X4024435Y2932235I73914J0D01*
G01X4265735Y2690935D01*
G03X4318000Y2669286I52265J52265D01*
G01X4527386Y2669286D01*
G01X4527386Y2645500D01*
G03X4563200Y2609686I35814J0D01*
G01X4733200Y2609686D01*
G03X4769014Y2645500I0J35814D01*
G01X4769014Y2815500D01*
G03X4733200Y2851314I-35814J0D01*
G01X4563200Y2851314D01*
G03X4527423Y2817114I0J-35814D01*
G01X4348616Y2817114D01*
G01X4150614Y3015116D01*
G01X4150614Y4338184D01*
G01X4208436Y4396006D01*
G03X4380467Y4519948I58762J99799D01*
G03X4172849Y4562970I-113270J-24142D01*
G03X4151440Y4548070I30856J-67165D01*
G01X4024435Y4421065D01*
G37*
G36*
G01X4267197Y8189991D02*
G03X4267197Y8421619I0J115814D01*
G03X4267197Y8189991I0J-115814D01*
G37*
G36*
G01X4267197Y8443991D02*
G03X4267197Y8675619I0J115814D01*
G03X4267197Y8443991I0J-115814D01*
G37*
G36*
G01X4267197Y7681991D02*
G03X4267197Y7913619I0J115814D01*
G03X4267197Y7681991I0J-115814D01*
G37*
G36*
G01X4267197Y7935991D02*
G03X4267197Y8167619I0J115814D01*
G03X4267197Y7935991I0J-115814D01*
G37*
G36*
G01X4267197Y7427991D02*
G03X4267197Y7659619I0J115814D01*
G03X4267197Y7427991I0J-115814D01*
G37*
G36*
G01X4510786Y3581400D02*
G03X4532435Y3529135I73914J0D01*
G01X5082286Y2979284D01*
G01X5082286Y2826065D01*
G03X5156200Y2609686I73914J-95565D01*
G03X5230114Y2826065I0J120814D01*
G01X5230114Y3009900D01*
G03X5208465Y3062165I-73914J0D01*
G01X4658614Y3612016D01*
G01X4658614Y6883400D01*
G03X4636965Y6935665I-73914J0D01*
G01X4484560Y7088070D01*
G03X4432295Y7109719I-52265J-52265D01*
G01X4356358Y7109719D01*
G03X4151384Y7035805I-89160J-73914D01*
G03X4356358Y6961891I115814J0D01*
G01X4401679Y6961891D01*
G01X4510786Y6852784D01*
G01X4510786Y3581400D01*
G37*
G36*
G01X4701286Y3721100D02*
G03X4722935Y3668835I73914J0D01*
G01X5336286Y3055484D01*
G01X5336286Y2826065D01*
G03X5410200Y2609686I73914J-95565D01*
G03X5484114Y2826065I0J120814D01*
G01X5484114Y3086100D01*
G03X5462465Y3138365I-73914J0D01*
G01X4849114Y3751716D01*
G01X4849114Y7048500D01*
G03X4827465Y7100765I-73914J0D01*
G01X4586160Y7342070D01*
G03X4533895Y7363719I-52265J-52265D01*
G01X4356358Y7363719D01*
G03X4151384Y7289805I-89160J-73914D01*
G03X4356358Y7215891I115814J0D01*
G01X4503279Y7215891D01*
G01X4701286Y7017884D01*
G01X4701286Y3721100D01*
G37*
G36*
G01X4267197Y6665991D02*
G03X4267197Y6897619I0J115814D01*
G03X4267197Y6665991I0J-115814D01*
G37*
G36*
G01X4267197Y6411991D02*
G03X4267197Y6643619I0J115814D01*
G03X4267197Y6411991I0J-115814D01*
G37*
G36*
G01X4267197Y8697991D02*
G03X4267197Y8929619I0J115814D01*
G03X4267197Y8697991I0J-115814D01*
G37*
G36*
G01X4267197Y4887991D02*
G03X4267197Y5119619I0J115814D01*
G03X4267197Y4887991I0J-115814D01*
G37*
G36*
G01X4267197Y5141991D02*
G03X4267197Y5373619I0J115814D01*
G03X4267197Y5141991I0J-115814D01*
G37*
G36*
G01X4267197Y5395991D02*
G03X4267197Y5627619I0J115814D01*
G03X4267197Y5395991I0J-115814D01*
G37*
G36*
G01X4267197Y4633991D02*
G03X4267197Y4865619I0J115814D01*
G03X4267197Y4633991I0J-115814D01*
G37*
G36*
G01X4267197Y5649991D02*
G03X4267197Y5881619I0J115814D01*
G03X4267197Y5649991I0J-115814D01*
G37*
G36*
G01X4601324Y9772714D02*
G01X4601324Y9825114D01*
G03X4429697Y9825114I-85814J0D01*
G01X4429697Y9772714D01*
G03X4601324Y9772714I85814J0D01*
G37*
G36*
G01X5206924Y9357586D02*
G03X5159210Y9514726I-47714J71326D01*
G01X5106810Y9514726D01*
G03X5059096Y9357586I0J-85814D01*
G01X5059096Y8494090D01*
G03X5080745Y8441825I73914J0D01*
G01X5281735Y8240835D01*
G03X5334000Y8219186I52265J52265D01*
G01X5714321Y8219186D01*
G03X5905812Y8322429I76876J86619D01*
G03X5692880Y8367014I-114615J-16624D01*
G01X5364616Y8367014D01*
G01X5206924Y8524706D01*
G01X5206924Y9357586D01*
G37*
G36*
G01X5476329Y9772714D02*
G01X5476329Y9825114D01*
G03X5304701Y9825114I-85814J0D01*
G01X5304701Y9772714D01*
G03X5476329Y9772714I85814J0D01*
G37*
G36*
G01X7235031Y7768726D02*
G03X7037260Y7871719I-117176J16374D01*
G01X5880358Y7871719D01*
G03X5675384Y7797805I-89160J-73914D01*
G03X5880358Y7723891I115814J0D01*
G01X7016604Y7723891D01*
G03X7235031Y7768726I101251J61209D01*
G37*
G36*
G01X7235031Y8022726D02*
G03X7037260Y8125719I-117176J16374D01*
G01X5880358Y8125719D01*
G03X5675384Y8051805I-89160J-73914D01*
G03X5880358Y7977891I115814J0D01*
G01X7016604Y7977891D01*
G03X7235031Y8022726I101251J61209D01*
G37*
G36*
G01X6594132Y5214132D02*
G03X6668046Y4964379I73914J-113939D01*
G03X6741960Y5214132I0J135814D01*
G01X6741960Y5904956D01*
G03X6720311Y5957222I-73914J0D01*
G01X5906508Y6771024D01*
G03X5899415Y6823057I-115311J10781D01*
G01X6526337Y6196135D01*
G03X6578603Y6174486I52265J52265D01*
G01X7233784Y6174486D01*
G01X7457186Y5951084D01*
G01X7457186Y5163408D01*
G03X7595216Y4943596I102921J-88615D01*
G03X7605014Y5202968I-35109J131197D01*
G01X7605014Y5981700D01*
G03X7583365Y6033965I-73914J0D01*
G01X7316665Y6300665D01*
G03X7264400Y6322314I-52265J-52265D01*
G01X6609219Y6322314D01*
G01X5906508Y7025024D01*
G03X5899415Y7077057I-115311J10781D01*
G01X6198840Y6777633D01*
G03X6251105Y6755984I52265J52265D01*
G01X8176286Y6755984D01*
G01X8473186Y6459084D01*
G01X8473186Y5129200D01*
G03X8473679Y5120678I73914J0D01*
G03X8671452Y4958375I127828J-45885D01*
G03X8621014Y5209199I-69945J116418D01*
G01X8621014Y6489700D01*
G03X8599365Y6541965I-73914J0D01*
G01X8259167Y6882163D01*
G03X8206902Y6903812I-52265J-52265D01*
G01X6281721Y6903812D01*
G01X5906508Y7279024D01*
G03X5899415Y7331057I-115311J10781D01*
G01X6297737Y6932735D01*
G03X6350003Y6911086I52265J52265D01*
G01X8694284Y6911086D01*
G01X9557893Y6047477D01*
G01X9557893Y5169119D01*
G03X9684258Y4942036I97714J-94326D01*
G03X9705721Y5201023I-28651J132757D01*
G01X9705721Y6078093D01*
G03X9684072Y6130358I-73914J0D01*
G01X8777165Y7037265D01*
G03X8724900Y7058914I-52265J-52265D01*
G01X6380619Y7058914D01*
G01X5906508Y7533024D01*
G03X5709305Y7625698I-115311J10781D01*
G03X5801978Y7428494I81893J-81893D01*
G01X5832449Y7398023D01*
G03X5676445Y7305448I-41252J-108218D01*
G03X5801978Y7174494I114753J-15643D01*
G01X5832449Y7144023D01*
G03X5676445Y7051448I-41252J-108218D01*
G03X5801978Y6920494I114753J-15643D01*
G01X5832449Y6890023D01*
G03X5676445Y6797448I-41252J-108218D01*
G03X5801978Y6666494I114753J-15643D01*
G01X5832449Y6636023D01*
G03X5709305Y6445912I-41252J-108218D01*
G03X5899415Y6569057I81893J81893D01*
G01X6594132Y5874340D01*
G01X6594132Y5214132D01*
G37*
G36*
G01X5791197Y6157991D02*
G03X5791197Y6389619I0J115814D01*
G03X5791197Y6157991I0J-115814D01*
G37*
G36*
G01X5791197Y5903991D02*
G03X5791197Y6135619I0J115814D01*
G03X5791197Y5903991I0J-115814D01*
G37*
G36*
G01X5791197Y8697991D02*
G03X5791197Y8929619I0J115814D01*
G03X5791197Y8697991I0J-115814D01*
G37*
G36*
G01X5791197Y5395991D02*
G03X5791197Y5627619I0J115814D01*
G03X5791197Y5395991I0J-115814D01*
G37*
G36*
G01X5791197Y5141991D02*
G03X5791197Y5373619I0J115814D01*
G03X5791197Y5141991I0J-115814D01*
G37*
G36*
G01X5791197Y4887991D02*
G03X5791197Y5119619I0J115814D01*
G03X5791197Y4887991I0J-115814D01*
G37*
G36*
G01X6466586Y3779384D02*
G01X6466586Y3081033D01*
G03X6488235Y3028768I73914J0D01*
G01X6576054Y2940949D01*
G03X6767039Y2854494I111779J-7249D01*
G03X6680584Y3045479I-79206J79206D01*
G01X6614414Y3111649D01*
G01X6614414Y3810000D01*
G03X6592765Y3862265I-73914J0D01*
G01X5906960Y4548070D01*
G03X5885544Y4562974I-52265J-52265D01*
G03X5677927Y4519944I-94346J-67169D01*
G03X5849962Y4396008I113270J-24139D01*
G01X6466586Y3779384D01*
G37*
G36*
G01X7110535Y3541835D02*
G03X7162800Y3520186I52265J52265D01*
G01X8922884Y3520186D01*
G01X9011699Y3431371D01*
G01X9011699Y3326109D01*
G03X9085613Y3098482I73914J-101813D01*
G03X9159527Y3326109I0J125814D01*
G01X9159527Y3461987D01*
G03X9137878Y3514252I-73914J0D01*
G01X9005765Y3646365D01*
G03X8953500Y3668014I-52265J-52265D01*
G01X7193416Y3668014D01*
G01X6059360Y4802070D01*
G03X6007095Y4823719I-52265J-52265D01*
G01X5880358Y4823719D01*
G03X5675384Y4749805I-89160J-73914D01*
G03X5880358Y4675891I115814J0D01*
G01X5976479Y4675891D01*
G01X7110535Y3541835D01*
G37*
G36*
G01X5791197Y4125991D02*
G03X5791197Y4357619I0J115814D01*
G03X5791197Y4125991I0J-115814D01*
G37*
G36*
G01X5791197Y3871991D02*
G03X5791197Y4103619I0J115814D01*
G03X5791197Y3871991I0J-115814D01*
G37*
G36*
G01X5791197Y5649991D02*
G03X5791197Y5881619I0J115814D01*
G03X5791197Y5649991I0J-115814D01*
G37*
G36*
G01X6668046Y4586021D02*
G03X6668046Y4314393I0J-135814D01*
G03X6668046Y4586021I0J135814D01*
G37*
G36*
G01X7299634Y2859786D02*
G03X7506889Y2872955I100963J48514D01*
G03X7348791Y3007614I-106291J35345D01*
G01X7025998Y3007614D01*
G03X6829819Y2933700I-84166J-73914D01*
G03X7025998Y2859786I112014J0D01*
G01X7299634Y2859786D01*
G37*
G36*
G01X7118033Y5236007D02*
G03X7118033Y4964379I0J-135814D01*
G03X7118033Y5236007I0J135814D01*
G37*
G36*
G01X7350374Y4113335D02*
G03X7402640Y4091686I52265J52265D01*
G01X7750886Y4091686D01*
G03X7803151Y4113335I0J73914D01*
G01X7981791Y4291975D01*
G03X8038395Y4291975I28302J132832D01*
G01X8217035Y4113335D01*
G03X8269300Y4091686I52265J52265D01*
G01X8792286Y4091686D01*
G03X8844551Y4113335I0J73914D01*
G01X9023191Y4291975D01*
G03X9079795Y4291975I28302J132832D01*
G01X9245735Y4126035D01*
G03X9298000Y4104386I52265J52265D01*
G01X9859086Y4104386D01*
G03X9911351Y4126035I0J73914D01*
G01X10077291Y4291975D01*
G03X10201628Y4520842I28302J132832D01*
G03X9972761Y4396505I-96035J-96035D01*
G01X9828470Y4252214D01*
G01X9328616Y4252214D01*
G01X9184325Y4396505D01*
G03X9051493Y4560621I-132832J28302D01*
G03X8918661Y4396505I0J-135814D01*
G01X8761670Y4239514D01*
G01X8299916Y4239514D01*
G01X8142925Y4396505D01*
G03X8010093Y4560621I-132832J28302D01*
G03X7877261Y4396505I0J-135814D01*
G01X7720270Y4239514D01*
G01X7433256Y4239514D01*
G01X7250865Y4421905D01*
G03X7021998Y4546242I-132832J28302D01*
G03X7146334Y4317375I96035J-96035D01*
G01X7350374Y4113335D01*
G37*
G36*
G01X7117855Y7412786D02*
G03X7117855Y7649414I0J118314D01*
G03X7117855Y7412786I0J-118314D01*
G37*
G36*
G01X7560107Y4560621D02*
G03X7560107Y4288993I0J-135814D01*
G03X7560107Y4560621I0J135814D01*
G37*
G36*
G01X8010093Y5210607D02*
G03X8010093Y4938979I0J-135814D01*
G03X8010093Y5210607I0J135814D01*
G37*
G36*
G01X8438594Y2908300D02*
G03X8662622Y2908300I112014J0D01*
G03X8438594Y2908300I-112014J0D01*
G37*
G36*
G01X8601507Y4560621D02*
G03X8601507Y4288993I0J-135814D01*
G03X8601507Y4560621I0J135814D01*
G37*
G36*
G01X9051493Y5210607D02*
G03X9051493Y4938979I0J-135814D01*
G03X9051493Y5210607I0J135814D01*
G37*
G36*
G01X9655607Y4560621D02*
G03X9655607Y4288993I0J-135814D01*
G03X9655607Y4560621I0J135814D01*
G37*
G36*
G01X9971420Y3224296D02*
G03X9719793Y3224296I-125814J0D01*
G03X9971420Y3224296I125814J0D01*
G37*
G36*
G01X10105593Y5210607D02*
G03X10105593Y4938979I0J-135814D01*
G03X10105593Y5210607I0J135814D01*
G37*
%LPD*%
G54D10*
G01X2982214Y9847300D02*
G02X3246400Y10111486I264186J0D01*
G01X10876000Y10111486D01*
G02X11140186Y9847300I0J-264186D01*
G01X11140186Y2522500D01*
G02X10876000Y2258314I-264186J0D01*
G01X3246400Y2258314D01*
G02X2982214Y2522500I0J264186D01*
G01X2982214Y9847300D01*
G01X3249818Y6309614D02*
G03X3047746Y6235700I-87518J-73914D01*
G03X3249818Y6161786I114554J0D01*
G01X4229092Y6161786D01*
G03X4236435Y6162152I0J73914D01*
G03X4369176Y6328698I30763J111653D01*
G03X4157059Y6309614I-101978J-54893D01*
G01X3249818Y6309614D01*
G01X3047746Y6410960D02*
G03X3083560Y6375146I35814J0D01*
G01X3241040Y6375146D01*
G03X3276854Y6410960I0J35814D01*
G01X3276854Y6568440D01*
G03X3241040Y6604254I-35814J0D01*
G01X3083560Y6604254D01*
G03X3047746Y6568440I0J-35814D01*
G01X3047746Y6410960D01*
G01X3249818Y6055614D02*
G03X3047746Y5981700I-87518J-73914D01*
G03X3249818Y5907786I114554J0D01*
G01X4229092Y5907786D01*
G03X4236435Y5908152I0J73914D01*
G03X4369176Y6074698I30763J111653D01*
G03X4157059Y6055614I-101978J-54893D01*
G01X3249818Y6055614D01*
G01X4024435Y4421065D02*
G03X4002786Y4368800I52265J-52265D01*
G01X4002786Y2984500D01*
G03X4024435Y2932235I73914J0D01*
G01X4265735Y2690935D01*
G03X4318000Y2669286I52265J52265D01*
G01X4527386Y2669286D01*
G01X4527386Y2645500D01*
G03X4563200Y2609686I35814J0D01*
G01X4733200Y2609686D01*
G03X4769014Y2645500I0J35814D01*
G01X4769014Y2815500D01*
G03X4733200Y2851314I-35814J0D01*
G01X4563200Y2851314D01*
G03X4527423Y2817114I0J-35814D01*
G01X4348616Y2817114D01*
G01X4150614Y3015116D01*
G01X4150614Y4338184D01*
G01X4208436Y4396006D01*
G03X4380467Y4519948I58762J99799D01*
G03X4172849Y4562970I-113270J-24142D01*
G03X4151440Y4548070I30856J-67165D01*
G01X4024435Y4421065D01*
G01X4267197Y8189991D02*
G03X4267197Y8421619I0J115814D01*
G03X4267197Y8189991I0J-115814D01*
G01X4267197Y8443991D02*
G03X4267197Y8675619I0J115814D01*
G03X4267197Y8443991I0J-115814D01*
G01X4267197Y7681991D02*
G03X4267197Y7913619I0J115814D01*
G03X4267197Y7681991I0J-115814D01*
G01X4267197Y7935991D02*
G03X4267197Y8167619I0J115814D01*
G03X4267197Y7935991I0J-115814D01*
G01X4267197Y7427991D02*
G03X4267197Y7659619I0J115814D01*
G03X4267197Y7427991I0J-115814D01*
G01X4510786Y3581400D02*
G03X4532435Y3529135I73914J0D01*
G01X5082286Y2979284D01*
G01X5082286Y2826065D01*
G03X5156200Y2609686I73914J-95565D01*
G03X5230114Y2826065I0J120814D01*
G01X5230114Y3009900D01*
G03X5208465Y3062165I-73914J0D01*
G01X4658614Y3612016D01*
G01X4658614Y6883400D01*
G03X4636965Y6935665I-73914J0D01*
G01X4484560Y7088070D01*
G03X4432295Y7109719I-52265J-52265D01*
G01X4356358Y7109719D01*
G03X4151384Y7035805I-89160J-73914D01*
G03X4356358Y6961891I115814J0D01*
G01X4401679Y6961891D01*
G01X4510786Y6852784D01*
G01X4510786Y3581400D01*
G01X4701286Y3721100D02*
G03X4722935Y3668835I73914J0D01*
G01X5336286Y3055484D01*
G01X5336286Y2826065D01*
G03X5410200Y2609686I73914J-95565D01*
G03X5484114Y2826065I0J120814D01*
G01X5484114Y3086100D01*
G03X5462465Y3138365I-73914J0D01*
G01X4849114Y3751716D01*
G01X4849114Y7048500D01*
G03X4827465Y7100765I-73914J0D01*
G01X4586160Y7342070D01*
G03X4533895Y7363719I-52265J-52265D01*
G01X4356358Y7363719D01*
G03X4151384Y7289805I-89160J-73914D01*
G03X4356358Y7215891I115814J0D01*
G01X4503279Y7215891D01*
G01X4701286Y7017884D01*
G01X4701286Y3721100D01*
G01X4267197Y6665991D02*
G03X4267197Y6897619I0J115814D01*
G03X4267197Y6665991I0J-115814D01*
G01X4267197Y6411991D02*
G03X4267197Y6643619I0J115814D01*
G03X4267197Y6411991I0J-115814D01*
G01X4267197Y8697991D02*
G03X4267197Y8929619I0J115814D01*
G03X4267197Y8697991I0J-115814D01*
G01X4267197Y4887991D02*
G03X4267197Y5119619I0J115814D01*
G03X4267197Y4887991I0J-115814D01*
G01X4267197Y5141991D02*
G03X4267197Y5373619I0J115814D01*
G03X4267197Y5141991I0J-115814D01*
G01X4267197Y5395991D02*
G03X4267197Y5627619I0J115814D01*
G03X4267197Y5395991I0J-115814D01*
G01X4267197Y4633991D02*
G03X4267197Y4865619I0J115814D01*
G03X4267197Y4633991I0J-115814D01*
G01X4267197Y5649991D02*
G03X4267197Y5881619I0J115814D01*
G03X4267197Y5649991I0J-115814D01*
G01X4601324Y9772714D02*
G01X4601324Y9825114D01*
G03X4429697Y9825114I-85814J0D01*
G01X4429697Y9772714D01*
G03X4601324Y9772714I85814J0D01*
G01X5206924Y9357586D02*
G03X5159210Y9514726I-47714J71326D01*
G01X5106810Y9514726D01*
G03X5059096Y9357586I0J-85814D01*
G01X5059096Y8494090D01*
G03X5080745Y8441825I73914J0D01*
G01X5281735Y8240835D01*
G03X5334000Y8219186I52265J52265D01*
G01X5714321Y8219186D01*
G03X5905812Y8322429I76876J86619D01*
G03X5692880Y8367014I-114615J-16624D01*
G01X5364616Y8367014D01*
G01X5206924Y8524706D01*
G01X5206924Y9357586D01*
G01X5476329Y9772714D02*
G01X5476329Y9825114D01*
G03X5304701Y9825114I-85814J0D01*
G01X5304701Y9772714D01*
G03X5476329Y9772714I85814J0D01*
G01X7235031Y7768726D02*
G03X7037260Y7871719I-117176J16374D01*
G01X5880358Y7871719D01*
G03X5675384Y7797805I-89160J-73914D01*
G03X5880358Y7723891I115814J0D01*
G01X7016604Y7723891D01*
G03X7235031Y7768726I101251J61209D01*
G01X7235031Y8022726D02*
G03X7037260Y8125719I-117176J16374D01*
G01X5880358Y8125719D01*
G03X5675384Y8051805I-89160J-73914D01*
G03X5880358Y7977891I115814J0D01*
G01X7016604Y7977891D01*
G03X7235031Y8022726I101251J61209D01*
G01X6594132Y5214132D02*
G03X6668046Y4964379I73914J-113939D01*
G03X6741960Y5214132I0J135814D01*
G01X6741960Y5904956D01*
G03X6720311Y5957222I-73914J0D01*
G01X5906508Y6771024D01*
G03X5899415Y6823057I-115311J10781D01*
G01X6526337Y6196135D01*
G03X6578603Y6174486I52265J52265D01*
G01X7233784Y6174486D01*
G01X7457186Y5951084D01*
G01X7457186Y5163408D01*
G03X7595216Y4943596I102921J-88615D01*
G03X7605014Y5202968I-35109J131197D01*
G01X7605014Y5981700D01*
G03X7583365Y6033965I-73914J0D01*
G01X7316665Y6300665D01*
G03X7264400Y6322314I-52265J-52265D01*
G01X6609219Y6322314D01*
G01X5906508Y7025024D01*
G03X5899415Y7077057I-115311J10781D01*
G01X6198840Y6777633D01*
G03X6251105Y6755984I52265J52265D01*
G01X8176286Y6755984D01*
G01X8473186Y6459084D01*
G01X8473186Y5129200D01*
G03X8473679Y5120678I73914J0D01*
G03X8671452Y4958375I127828J-45885D01*
G03X8621014Y5209199I-69945J116418D01*
G01X8621014Y6489700D01*
G03X8599365Y6541965I-73914J0D01*
G01X8259167Y6882163D01*
G03X8206902Y6903812I-52265J-52265D01*
G01X6281721Y6903812D01*
G01X5906508Y7279024D01*
G03X5899415Y7331057I-115311J10781D01*
G01X6297737Y6932735D01*
G03X6350003Y6911086I52265J52265D01*
G01X8694284Y6911086D01*
G01X9557893Y6047477D01*
G01X9557893Y5169119D01*
G03X9684258Y4942036I97714J-94326D01*
G03X9705721Y5201023I-28651J132757D01*
G01X9705721Y6078093D01*
G03X9684072Y6130358I-73914J0D01*
G01X8777165Y7037265D01*
G03X8724900Y7058914I-52265J-52265D01*
G01X6380619Y7058914D01*
G01X5906508Y7533024D01*
G03X5709305Y7625698I-115311J10781D01*
G03X5801978Y7428494I81893J-81893D01*
G01X5832449Y7398023D01*
G03X5676445Y7305448I-41252J-108218D01*
G03X5801978Y7174494I114753J-15643D01*
G01X5832449Y7144023D01*
G03X5676445Y7051448I-41252J-108218D01*
G03X5801978Y6920494I114753J-15643D01*
G01X5832449Y6890023D01*
G03X5676445Y6797448I-41252J-108218D01*
G03X5801978Y6666494I114753J-15643D01*
G01X5832449Y6636023D01*
G03X5709305Y6445912I-41252J-108218D01*
G03X5899415Y6569057I81893J81893D01*
G01X6594132Y5874340D01*
G01X6594132Y5214132D01*
G01X5791197Y6157991D02*
G03X5791197Y6389619I0J115814D01*
G03X5791197Y6157991I0J-115814D01*
G01X5791197Y5903991D02*
G03X5791197Y6135619I0J115814D01*
G03X5791197Y5903991I0J-115814D01*
G01X5791197Y8697991D02*
G03X5791197Y8929619I0J115814D01*
G03X5791197Y8697991I0J-115814D01*
G01X5791197Y5395991D02*
G03X5791197Y5627619I0J115814D01*
G03X5791197Y5395991I0J-115814D01*
G01X5791197Y5141991D02*
G03X5791197Y5373619I0J115814D01*
G03X5791197Y5141991I0J-115814D01*
G01X5791197Y4887991D02*
G03X5791197Y5119619I0J115814D01*
G03X5791197Y4887991I0J-115814D01*
G01X6466586Y3779384D02*
G01X6466586Y3081033D01*
G03X6488235Y3028768I73914J0D01*
G01X6576054Y2940949D01*
G03X6767039Y2854494I111779J-7249D01*
G03X6680584Y3045479I-79206J79206D01*
G01X6614414Y3111649D01*
G01X6614414Y3810000D01*
G03X6592765Y3862265I-73914J0D01*
G01X5906960Y4548070D01*
G03X5885544Y4562974I-52265J-52265D01*
G03X5677927Y4519944I-94346J-67169D01*
G03X5849962Y4396008I113270J-24139D01*
G01X6466586Y3779384D01*
G01X7110535Y3541835D02*
G03X7162800Y3520186I52265J52265D01*
G01X8922884Y3520186D01*
G01X9011699Y3431371D01*
G01X9011699Y3326109D01*
G03X9085613Y3098482I73914J-101813D01*
G03X9159527Y3326109I0J125814D01*
G01X9159527Y3461987D01*
G03X9137878Y3514252I-73914J0D01*
G01X9005765Y3646365D01*
G03X8953500Y3668014I-52265J-52265D01*
G01X7193416Y3668014D01*
G01X6059360Y4802070D01*
G03X6007095Y4823719I-52265J-52265D01*
G01X5880358Y4823719D01*
G03X5675384Y4749805I-89160J-73914D01*
G03X5880358Y4675891I115814J0D01*
G01X5976479Y4675891D01*
G01X7110535Y3541835D01*
G01X5791197Y4125991D02*
G03X5791197Y4357619I0J115814D01*
G03X5791197Y4125991I0J-115814D01*
G01X5791197Y3871991D02*
G03X5791197Y4103619I0J115814D01*
G03X5791197Y3871991I0J-115814D01*
G01X5791197Y5649991D02*
G03X5791197Y5881619I0J115814D01*
G03X5791197Y5649991I0J-115814D01*
G01X6668046Y4586021D02*
G03X6668046Y4314393I0J-135814D01*
G03X6668046Y4586021I0J135814D01*
G01X7299634Y2859786D02*
G03X7506889Y2872955I100963J48514D01*
G03X7348791Y3007614I-106291J35345D01*
G01X7025998Y3007614D01*
G03X6829819Y2933700I-84166J-73914D01*
G03X7025998Y2859786I112014J0D01*
G01X7299634Y2859786D01*
G01X7118033Y5236007D02*
G03X7118033Y4964379I0J-135814D01*
G03X7118033Y5236007I0J135814D01*
G01X7350374Y4113335D02*
G03X7402640Y4091686I52265J52265D01*
G01X7750886Y4091686D01*
G03X7803151Y4113335I0J73914D01*
G01X7981791Y4291975D01*
G03X8038395Y4291975I28302J132832D01*
G01X8217035Y4113335D01*
G03X8269300Y4091686I52265J52265D01*
G01X8792286Y4091686D01*
G03X8844551Y4113335I0J73914D01*
G01X9023191Y4291975D01*
G03X9079795Y4291975I28302J132832D01*
G01X9245735Y4126035D01*
G03X9298000Y4104386I52265J52265D01*
G01X9859086Y4104386D01*
G03X9911351Y4126035I0J73914D01*
G01X10077291Y4291975D01*
G03X10201628Y4520842I28302J132832D01*
G03X9972761Y4396505I-96035J-96035D01*
G01X9828470Y4252214D01*
G01X9328616Y4252214D01*
G01X9184325Y4396505D01*
G03X9051493Y4560621I-132832J28302D01*
G03X8918661Y4396505I0J-135814D01*
G01X8761670Y4239514D01*
G01X8299916Y4239514D01*
G01X8142925Y4396505D01*
G03X8010093Y4560621I-132832J28302D01*
G03X7877261Y4396505I0J-135814D01*
G01X7720270Y4239514D01*
G01X7433256Y4239514D01*
G01X7250865Y4421905D01*
G03X7021998Y4546242I-132832J28302D01*
G03X7146334Y4317375I96035J-96035D01*
G01X7350374Y4113335D01*
G01X7117855Y7412786D02*
G03X7117855Y7649414I0J118314D01*
G03X7117855Y7412786I0J-118314D01*
G01X7560107Y4560621D02*
G03X7560107Y4288993I0J-135814D01*
G03X7560107Y4560621I0J135814D01*
G01X8010093Y5210607D02*
G03X8010093Y4938979I0J-135814D01*
G03X8010093Y5210607I0J135814D01*
G01X8438594Y2908300D02*
G03X8662622Y2908300I112014J0D01*
G03X8438594Y2908300I-112014J0D01*
G01X8601507Y4560621D02*
G03X8601507Y4288993I0J-135814D01*
G03X8601507Y4560621I0J135814D01*
G01X9051493Y5210607D02*
G03X9051493Y4938979I0J-135814D01*
G03X9051493Y5210607I0J135814D01*
G01X9655607Y4560621D02*
G03X9655607Y4288993I0J-135814D01*
G03X9655607Y4560621I0J135814D01*
G01X9971420Y3224296D02*
G03X9719793Y3224296I-125814J0D01*
G03X9971420Y3224296I125814J0D01*
G01X10105593Y5210607D02*
G03X10105593Y4938979I0J-135814D01*
G03X10105593Y5210607I0J135814D01*
G04 Copper End*

G04 Pad Start*
G54D11*
G01X9085613Y3224296D03*
G01X9845606Y3224296D03*
G54D12*
G01X7117855Y8039100D03*
G01X7117855Y7785100D03*
G01X7117855Y7531100D03*
G01X7118109Y7277100D03*
G54D13*
G01X7400597Y2908300D03*
G01X8550608Y2908300D03*
G54D14*
G01X3162300Y6489700D03*
G54D15*
G01X3162300Y6235700D03*
G01X3162300Y5981700D03*
G01X3162300Y5727700D03*
G54D16*
G01X5791197Y3987805D03*
G01X5791197Y4241805D03*
G01X5791197Y4495805D03*
G01X5791197Y4749805D03*
G01X5791197Y5003805D03*
G01X5791197Y5257805D03*
G01X5791197Y5511805D03*
G01X5791197Y5765805D03*
G01X5791197Y6019805D03*
G01X5791197Y6273805D03*
G01X5791197Y6527805D03*
G01X5791197Y6781805D03*
G01X5791197Y7035805D03*
G01X5791197Y7289805D03*
G01X5791197Y7543805D03*
G01X5791197Y7797805D03*
G01X5791197Y8051805D03*
G01X5791197Y8305805D03*
G01X5791197Y8559805D03*
G01X5791197Y8813805D03*
G01X4267197Y8813805D03*
G01X4267197Y8559805D03*
G01X4267197Y8305805D03*
G01X4267197Y8051805D03*
G01X4267197Y7797805D03*
G01X4267197Y7543805D03*
G01X4267197Y7289805D03*
G01X4267197Y7035805D03*
G01X4267197Y6781805D03*
G01X4267197Y6527805D03*
G01X4267197Y6273805D03*
G01X4267197Y6019805D03*
G01X4267197Y5765805D03*
G01X4267197Y5511805D03*
G01X4267197Y5257805D03*
G01X4267197Y5003805D03*
G01X4267197Y4749805D03*
G01X4267197Y4495805D03*
G01X4267197Y4241805D03*
G01X4267197Y3987805D03*
G54D17*
G01X7118033Y5100193D03*
G01X6668046Y5100193D03*
G01X6668046Y4450207D03*
G01X7118033Y4450207D03*
G01X8010093Y5074793D03*
G01X7560107Y5074793D03*
G01X7560107Y4424807D03*
G01X8010093Y4424807D03*
G01X9051493Y5074793D03*
G01X8601507Y5074793D03*
G01X8601507Y4424807D03*
G01X9051493Y4424807D03*
G01X10105593Y5074793D03*
G01X9655607Y5074793D03*
G01X9655607Y4424807D03*
G01X10105593Y4424807D03*
G54D13*
G01X6941833Y2933700D03*
G01X6687833Y2933700D03*
G54D19*
G01X5133010Y9428912D03*
G01X4773016Y9428912D03*
G54D20*
G01X4515510Y9798914D03*
G01X5390515Y9798914D03*
G54D21*
G01X4648200Y2730500D03*
G54D22*
G01X4902200Y2730500D03*
G01X5156200Y2730500D03*
G01X5410200Y2730500D03*
G04 Pad End*

G04 Via Start*
G54D23*
G01X3421400Y9596100D03*
G01X3929400Y9596100D03*
G01X4437400Y9596100D03*
G01X4945400Y9596100D03*
G01X5453400Y9596100D03*
G01X5961400Y9596100D03*
G01X6469400Y9596100D03*
G01X6977400Y9596100D03*
G01X7485400Y9596100D03*
G01X7993400Y9596100D03*
G01X8501400Y9596100D03*
G01X9009400Y9596100D03*
G01X9517400Y9596100D03*
G01X10025400Y9596100D03*
G01X10533400Y9596100D03*
G01X11041400Y9596100D03*
G01X3421400Y9088100D03*
G01X3929400Y9088100D03*
G01X4437400Y9088100D03*
G01X4945400Y9088100D03*
G01X5453400Y9088100D03*
G01X5961400Y9088100D03*
G01X6469400Y9088100D03*
G01X6977400Y9088100D03*
G01X7485400Y9088100D03*
G01X7993400Y9088100D03*
G01X8501400Y9088100D03*
G01X9009400Y9088100D03*
G01X9517400Y9088100D03*
G01X10025400Y9088100D03*
G01X10533400Y9088100D03*
G01X11041400Y9088100D03*
G01X3421400Y8580100D03*
G01X3929400Y8580100D03*
G01X4437400Y8580100D03*
G01X4945400Y8580100D03*
G01X5453400Y8580100D03*
G01X5961400Y8580100D03*
G01X6977400Y8580100D03*
G01X7485400Y8580100D03*
G01X7993400Y8580100D03*
G01X8501400Y8580100D03*
G01X9009400Y8580100D03*
G01X9517400Y8580100D03*
G01X10025400Y8580100D03*
G01X10533400Y8580100D03*
G01X11041400Y8580100D03*
G01X3421400Y8072100D03*
G01X3929400Y8072100D03*
G01X4437400Y8072100D03*
G01X4945400Y8072100D03*
G01X5453400Y8072100D03*
G01X7485400Y8072100D03*
G01X7993400Y8072100D03*
G01X8501400Y8072100D03*
G01X9009400Y8072100D03*
G01X9517400Y8072100D03*
G01X10025400Y8072100D03*
G01X10533400Y8072100D03*
G01X11041400Y8072100D03*
G01X3421400Y7564100D03*
G01X3929400Y7564100D03*
G01X4437400Y7564100D03*
G01X4945400Y7564100D03*
G01X5453400Y7564100D03*
G01X5961400Y7564100D03*
G01X6469400Y7564100D03*
G01X10025400Y7564100D03*
G01X10533400Y7564100D03*
G01X11041400Y7564100D03*
G01X3421400Y7056100D03*
G01X3929400Y7056100D03*
G01X4945400Y7322800D03*
G01X4945400Y7056100D03*
G01X5453400Y7056100D03*
G01X9009400Y7056100D03*
G01X9517400Y7056100D03*
G01X10533400Y7056100D03*
G01X11041400Y7056100D03*
G01X3929400Y6548100D03*
G01X4437400Y6548100D03*
G01X4945400Y6548100D03*
G01X5453400Y6548100D03*
G01X6469400Y6548100D03*
G01X6977400Y6548100D03*
G01X7485400Y6548100D03*
G01X7993400Y6548100D03*
G01X9009400Y6548100D03*
G01X9517400Y6548100D03*
G01X10025400Y6548100D03*
G01X10533400Y6548100D03*
G01X11041400Y6548100D03*
G01X4437400Y6040100D03*
G01X4945400Y6040100D03*
G01X5453400Y6040100D03*
G01X5961400Y6040100D03*
G01X6977400Y6040100D03*
G01X7993400Y6040100D03*
G01X9009400Y6040100D03*
G01X9517400Y6040100D03*
G01X10025400Y6040100D03*
G01X11041400Y6040100D03*
G01X3421400Y5532100D03*
G01X3929400Y5532100D03*
G01X4437400Y5532100D03*
G01X4945400Y5532100D03*
G01X5453400Y5532100D03*
G01X5961400Y5532100D03*
G01X6469400Y5532100D03*
G01X6977400Y5532100D03*
G01X7993400Y5532100D03*
G01X9009400Y5532100D03*
G01X9517400Y5532100D03*
G01X10025400Y5532100D03*
G01X11041400Y5532100D03*
G01X3421400Y5024100D03*
G01X3929400Y5024100D03*
G01X4437400Y5024100D03*
G01X4945400Y5024100D03*
G01X5453400Y5024100D03*
G01X5961400Y5024100D03*
G01X6469400Y5024100D03*
G01X11041400Y5024100D03*
G01X3421400Y4516100D03*
G01X4945400Y4516100D03*
G01X5453400Y4516100D03*
G01X6469400Y4516100D03*
G01X11041400Y4516100D03*
G01X3421400Y4008100D03*
G01X3878600Y4008100D03*
G01X4437400Y4008100D03*
G01X4945400Y4008100D03*
G01X5453400Y4008100D03*
G01X5961400Y4008100D03*
G01X6977400Y4008100D03*
G01X7485400Y4008100D03*
G01X8501400Y4008100D03*
G01X9009400Y4008100D03*
G01X9517400Y4008100D03*
G01X10025400Y4008100D03*
G01X11041400Y4008100D03*
G01X3421400Y3500100D03*
G01X3878600Y3500100D03*
G01X4437400Y3500100D03*
G01X4437400Y3208000D03*
G01X5453400Y3500100D03*
G01X5961400Y3500100D03*
G01X6977400Y3500100D03*
G01X9517400Y3500100D03*
G01X10533400Y3500100D03*
G01X11041400Y3500100D03*
G01X3421400Y2992100D03*
G01X3865900Y2992100D03*
G01X4437400Y2992100D03*
G01X4945400Y2992100D03*
G01X5720100Y2992100D03*
G01X5961400Y2992100D03*
G01X6469400Y2992100D03*
G01X7993400Y2992100D03*
G01X9009400Y2992100D03*
G01X9517400Y2992100D03*
G01X10025400Y2992100D03*
G01X10533400Y2992100D03*
G01X11041400Y2992100D03*
G01X3421400Y2484100D03*
G01X3929400Y2484100D03*
G01X4437400Y2484100D03*
G01X4945400Y2484100D03*
G01X5453400Y2484100D03*
G01X5961400Y2484100D03*
G01X6469400Y2484100D03*
G01X6977400Y2484100D03*
G01X7485400Y2484100D03*
G01X7993400Y2484100D03*
G01X8501400Y2484100D03*
G01X9009400Y2484100D03*
G01X9517400Y2484100D03*
G01X10025400Y2484100D03*
G01X10533400Y2484100D03*
G01X11041400Y2484100D03*
G04 Via End*

G04 Track Start*
G54D24*
G01X4267197Y6019805D02*
G01X4229092Y5981700D01*
G01X5791197Y6781805D02*
G01X6668046Y5904956D01*
G01X6668046Y5100193D01*
G01X9655607Y5074793D02*
G01X9631807Y5074793D01*
G01X5791197Y8051805D02*
G01X7105150Y8051805D01*
G01X7117855Y8039100D01*
G01X5791197Y7797805D02*
G01X7105150Y7797805D01*
G01X7117855Y7785100D01*
G01X9631807Y5074793D02*
G01X9631807Y6078093D01*
G01X8724900Y6985000D01*
G01X6350003Y6985000D01*
G01X5791197Y7543805D02*
G01X6350003Y6985000D01*
G01X8547100Y5129200D02*
G01X8601507Y5074793D01*
G01X5791197Y7289805D02*
G01X6251105Y6829898D01*
G01X8206902Y6829898D02*
G01X8547100Y6489700D01*
G01X6251105Y6829898D02*
G01X8206902Y6829898D01*
G01X8547100Y5129200D02*
G01X8547100Y6489700D01*
G01X6578603Y6248400D02*
G01X7264400Y6248400D01*
G01X7531100Y5981700D01*
G01X7560107Y5080000D02*
G01X7560107Y5074793D01*
G01X5791197Y7035805D02*
G01X6578603Y6248400D01*
G01X7531100Y5981700D02*
G01X7531100Y5080000D01*
G01X7118033Y4450207D02*
G01X7402640Y4165600D01*
G01X7750886Y4165600D02*
G01X8010093Y4424807D01*
G01X7402640Y4165600D02*
G01X7750886Y4165600D01*
G01X8792286Y4165600D02*
G01X9051493Y4424807D01*
G01X8269300Y4165600D02*
G01X8792286Y4165600D01*
G01X9051493Y4424807D02*
G01X9298000Y4178300D01*
G01X9859086Y4178300D02*
G01X10105593Y4424807D01*
G01X9298000Y4178300D02*
G01X9859086Y4178300D01*
G01X5791197Y4749805D02*
G01X6007095Y4749805D01*
G01X7162800Y3594100D01*
G01X5791197Y4495805D02*
G01X5854695Y4495805D01*
G01X6540500Y3081033D02*
G01X6687833Y2933700D01*
G01X5854695Y4495805D02*
G01X6540500Y3810000D01*
G01X6540500Y3081033D01*
G01X9085613Y3461987D02*
G01X9085613Y3224296D01*
G01X8953500Y3594100D02*
G01X9085613Y3461987D01*
G01X6941833Y2933700D02*
G01X7375197Y2933700D01*
G01X7400597Y2908300D01*
G01X5133010Y9428912D02*
G01X5133010Y8494090D01*
G01X5334000Y8293100D01*
G01X5778492Y8293100D01*
G01X5791197Y8305805D01*
G01X8010093Y4424807D02*
G01X8269300Y4165600D01*
G01X7162800Y3594100D02*
G01X8953500Y3594100D01*
G01X3162300Y6235700D02*
G01X4229092Y6235700D01*
G01X4267197Y6273805D01*
G01X4229092Y5981700D02*
G01X3162300Y5981700D01*
G01X4267197Y7289805D02*
G01X4533895Y7289805D01*
G01X4775200Y7048500D01*
G01X4775200Y3721100D01*
G01X5410200Y3086100D01*
G01X5410200Y2730500D01*
G01X4584700Y6883400D02*
G01X4584700Y3581400D01*
G01X5156200Y3009900D01*
G01X5156200Y2730500D01*
G01X4267197Y7035805D02*
G01X4432295Y7035805D01*
G01X4584700Y6883400D01*
G01X4267197Y4495805D02*
G01X4203705Y4495805D01*
G01X4076700Y4368800D01*
G01X4076700Y2984500D01*
G01X4318000Y2743200D01*
G01X4635500Y2743200D01*
G01X4648200Y2730500D01*
G04 Track End*

M02*

