G04 Layer: DrillDrawingLayer*
G04 EasyEDA Pro v2.2.34.8, 2025-02-03 13:19:09*
G04 Gerber Generator version 0.3*
G04 Scale: 100 percent, Rotated: No, Reflected: No*
G04 Dimensions in millimeters*
G04 Leading zeros omitted, absolute positions, 4 integers and 5 decimals*
%FSLAX45Y45*%
%MOMM*%
%AMIconRect*4,1,4,0.2,-0.2,-0.2,-0.2,-0.2,0.2,0.2,0.2,0.2,-0.2,0*4,0,4,0.166667,-0.166667,0.166667,0.166667,-0.166667,0.166667,-0.166667,-0.166667,0.166667,-0.166667,0*%
%AMIconTriangle*4,1,3,-0.242567,0.171767,0.242567,0.171767,0,-0.2706,-0.242567,0.171767,0*4,0,3,-0.189767,0.1386,0,-0.1953,0.190167,0.1386,-0.189767,0.1386,0*%
%AMIconStar6*4,1,12,0.0862,0.1492,0.213233,0.123367,0.172367,0,0.213233,-0.1229,0.0862,-0.148733,0,-0.245767,-0.085767,-0.148733,-0.213267,-0.1229,-0.171933,0,-0.213267,0.1229,-0.085767,0.1492,0,0.245767,0.0862,0.1492,0*4,0,12,-0.000333,0.195333,-0.064333,0.122667,-0.169667,0.097667,-0.138333,-0.005333,-0.169667,-0.098,-0.064333,-0.122667,-0.000333,-0.195667,0.064333,-0.122667,0.169667,-0.098,0.138667,0.005,0.169667,0.098,0.064333,0.122333,-0.000333,0.195333,0*%
%AMIconStar4*4,1,8,-0.222667,0.222667,0,0.144667,0.222667,0.222667,0.144667,0,0.222667,-0.222667,0,-0.144667,-0.217433,-0.222667,-0.144667,0,-0.222667,0.222667,0*4,0,8,0.166667,-0.166667,0.108,0,0.166667,0.166667,0,0.108,-0.166667,0.166667,-0.108,0,-0.166667,-0.166667,0,-0.108,0.166667,-0.166667,0*%
%AMIconPlus*4,1,12,0.124,-0.2,-0.124,-0.2,-0.124,-0.124,-0.2,-0.124,-0.2,0.124,-0.124,0.124,-0.124,0.2,0.124,0.2,0.124,0.124,0.2,0.124,0.2,-0.124,0.124,-0.124,0.124,-0.2,0*4,0,12,0.090667,-0.166667,0.090667,-0.090667,0.166667,-0.090667,0.166667,0.090667,0.090667,0.090667,0.090667,0.166667,-0.090667,0.166667,-0.090667,0.090667,-0.166667,0.090667,-0.166667,-0.090667,-0.090667,-0.090667,-0.090667,-0.166667,0.090667,-0.166667,0*%
%AMIconX*4,1,16,0.2,-0.2,0.054533,-0.2,0,-0.145467,-0.054533,-0.2,-0.2,-0.2,-0.2,-0.054533,-0.145467,0,-0.2,0.054533,-0.2,0.2,-0.054533,0.2,0,0.145467,0.054533,0.2,0.2,0.2,0.2,0.054533,0.145467,0,0.2,-0.054533,0.2,-0.2,0*4,0,16,0.1668,-0.1664,0.1668,-0.068467,0.097933,0.000067,0.1668,0.068467,0.1668,0.1665,0.068467,0.1665,0,0.097933,-0.068467,0.1665,-0.1668,0.1665,-0.1668,0.068467,-0.097933,0.000067,-0.1668,-0.068467,-0.1668,-0.1664,-0.068467,-0.1664,0,-0.097933,0.068467,-0.1664,0.1668,-0.1664,0*%
%AMIconDiamond*4,1,4,0,-0.26,-0.26,0,0,0.26,0.26,0,0,-0.26,0*4,0,4,0,-0.203433,0.203433,0,0,0.2036,-0.203433,0,0,-0.203433,0*%
%ADD10IconRect*%
%ADD11C,0.44X0.373333*%
%ADD12IconTriangle*%
%ADD13IconStar6*%
%ADD14IconStar4*%
%ADD15IconPlus*%
%ADD16IconX*%
%ADD17IconDiamond*%
G75*


G04 Drill Drawing Start*
G54D10*
G01X4773003Y9428927D03*
G01X5132997Y9428922D03*
G54D11*
G01X4515500Y9798900D03*
G01X5390500Y9798898D03*
G54D12*
G01X6687833Y2933700D03*
G01X6941833Y2933700D03*
G01X7400597Y2908300D03*
G01X8550600Y2908300D03*
G54D13*
G01X3162300Y5727700D03*
G01X3162300Y5981700D03*
G01X3162300Y6235700D03*
G01X3162300Y6489700D03*
G54D14*
G01X4648200Y2730500D03*
G01X4902200Y2730500D03*
G01X5156200Y2730500D03*
G01X5410200Y2730500D03*
G54D15*
G01X6668046Y4450207D03*
G01X6668046Y5100193D03*
G01X7118033Y4450207D03*
G01X7118033Y5100193D03*
G01X7560107Y4424807D03*
G01X7560107Y5074793D03*
G01X8010093Y4424807D03*
G01X8010093Y5074793D03*
G01X8601507Y4424807D03*
G01X8601507Y5074793D03*
G01X9051493Y4424807D03*
G01X9051493Y5074793D03*
G01X9655607Y4424807D03*
G01X9655607Y5074793D03*
G01X10105593Y4424807D03*
G01X10105593Y5074793D03*
G54D16*
G01X4267200Y6019803D03*
G01X4267200Y6273800D03*
G01X4267200Y6527800D03*
G01X4267200Y6781800D03*
G01X4267200Y7035800D03*
G01X4267200Y7289800D03*
G01X4267200Y7543797D03*
G01X4267200Y7797797D03*
G01X4267200Y8051797D03*
G01X4267200Y8305797D03*
G01X4267200Y8559797D03*
G01X4267200Y3987805D03*
G01X4267200Y4241805D03*
G01X4267200Y4495805D03*
G01X4267200Y4749805D03*
G01X4267200Y5003803D03*
G01X4267200Y5257803D03*
G01X4267200Y5511803D03*
G01X4267200Y5765803D03*
G01X4267200Y8813795D03*
G01X5791197Y6019803D03*
G01X5791197Y6273800D03*
G01X5791197Y6527800D03*
G01X5791197Y6781800D03*
G01X5791197Y7035800D03*
G01X5791197Y7289800D03*
G01X5791197Y7543797D03*
G01X5791197Y7797797D03*
G01X5791197Y8051797D03*
G01X5791197Y8305797D03*
G01X5791197Y8559797D03*
G01X5791197Y3987805D03*
G01X5791197Y4241805D03*
G01X5791197Y4495805D03*
G01X5791197Y4749805D03*
G01X5791197Y5003803D03*
G01X5791197Y5257803D03*
G01X5791197Y5511803D03*
G01X5791197Y5765803D03*
G01X5791197Y8813795D03*
G01X7117824Y7531085D03*
G01X7117824Y7785085D03*
G01X7117824Y8039085D03*
G01X7118078Y7277085D03*
G01X9085610Y3224296D03*
G01X9845609Y3224296D03*
G54D17*
G01X3421400Y2484100D03*
G01X3421400Y2992100D03*
G01X3421400Y3500100D03*
G01X3421400Y4008100D03*
G01X3421400Y4516100D03*
G01X3421400Y5024100D03*
G01X3421400Y5532100D03*
G01X3421400Y7056100D03*
G01X3421400Y7564100D03*
G01X3421400Y8072100D03*
G01X3421400Y8580100D03*
G01X3421400Y9088100D03*
G01X3421400Y9596100D03*
G01X3865900Y2992100D03*
G01X3878600Y3500100D03*
G01X3878600Y4008100D03*
G01X3929400Y2484100D03*
G01X3929400Y5024100D03*
G01X3929400Y5532100D03*
G01X3929400Y6548100D03*
G01X3929400Y7056100D03*
G01X3929400Y7564100D03*
G01X3929400Y8072100D03*
G01X3929400Y8580100D03*
G01X3929400Y9088100D03*
G01X3929400Y9596100D03*
G01X4437400Y2484100D03*
G01X4437400Y2992100D03*
G01X4437400Y3208000D03*
G01X4437400Y3500100D03*
G01X4437400Y4008100D03*
G01X4437400Y5024100D03*
G01X4437400Y5532100D03*
G01X4437400Y6040100D03*
G01X4437400Y6548100D03*
G01X4437400Y7564100D03*
G01X4437400Y8072100D03*
G01X4437400Y8580100D03*
G01X4437400Y9088100D03*
G01X4437400Y9596100D03*
G01X4945400Y2484100D03*
G01X4945400Y2992100D03*
G01X4945400Y4008100D03*
G01X4945400Y4516100D03*
G01X4945400Y5024100D03*
G01X4945400Y5532100D03*
G01X4945400Y6040100D03*
G01X4945400Y6548100D03*
G01X4945400Y7056100D03*
G01X4945400Y7322800D03*
G01X4945400Y7564100D03*
G01X4945400Y8072100D03*
G01X4945400Y8580100D03*
G01X4945400Y9088100D03*
G01X4945400Y9596100D03*
G01X5453400Y2484100D03*
G01X5453400Y3500100D03*
G01X5453400Y4008100D03*
G01X5453400Y4516100D03*
G01X5453400Y5024100D03*
G01X5453400Y5532100D03*
G01X5453400Y6040100D03*
G01X5453400Y6548100D03*
G01X5453400Y7056100D03*
G01X5453400Y7564100D03*
G01X5453400Y8072100D03*
G01X5453400Y8580100D03*
G01X5453400Y9088100D03*
G01X5453400Y9596100D03*
G01X5720100Y2992100D03*
G01X5961400Y2484100D03*
G01X5961400Y2992100D03*
G01X5961400Y3500100D03*
G01X5961400Y4008100D03*
G01X5961400Y5024100D03*
G01X5961400Y5532100D03*
G01X5961400Y6040100D03*
G01X5961400Y7564100D03*
G01X5961400Y8580100D03*
G01X5961400Y9088100D03*
G01X5961400Y9596100D03*
G01X6469400Y2484100D03*
G01X6469400Y2992100D03*
G01X6469400Y4516100D03*
G01X6469400Y5024100D03*
G01X6469400Y5532100D03*
G01X6469400Y6548100D03*
G01X6469400Y7564100D03*
G01X6469400Y9088100D03*
G01X6469400Y9596100D03*
G01X6977400Y2484100D03*
G01X6977400Y3500100D03*
G01X6977400Y4008100D03*
G01X6977400Y5532100D03*
G01X6977400Y6040100D03*
G01X6977400Y6548100D03*
G01X6977400Y8580100D03*
G01X6977400Y9088100D03*
G01X6977400Y9596100D03*
G01X7485400Y2484100D03*
G01X7485400Y4008100D03*
G01X7485400Y6548100D03*
G01X7485400Y8072100D03*
G01X7485400Y8580100D03*
G01X7485400Y9088100D03*
G01X7485400Y9596100D03*
G01X7993400Y2484100D03*
G01X7993400Y2992100D03*
G01X7993400Y5532100D03*
G01X7993400Y6040100D03*
G01X7993400Y6548100D03*
G01X7993400Y8072100D03*
G01X7993400Y8580100D03*
G01X7993400Y9088100D03*
G01X7993400Y9596100D03*
G01X8501400Y2484100D03*
G01X8501400Y4008100D03*
G01X8501400Y8072100D03*
G01X8501400Y8580100D03*
G01X8501400Y9088100D03*
G01X8501400Y9596100D03*
G01X9009400Y2484100D03*
G01X9009400Y2992100D03*
G01X9009400Y4008100D03*
G01X9009400Y5532100D03*
G01X9009400Y6040100D03*
G01X9009400Y6548100D03*
G01X9009400Y7056100D03*
G01X9009400Y8072100D03*
G01X9009400Y8580100D03*
G01X9009400Y9088100D03*
G01X9009400Y9596100D03*
G01X9517400Y2484100D03*
G01X9517400Y2992100D03*
G01X9517400Y3500100D03*
G01X9517400Y4008100D03*
G01X9517400Y5532100D03*
G01X9517400Y6040100D03*
G01X9517400Y6548100D03*
G01X9517400Y7056100D03*
G01X9517400Y8072100D03*
G01X9517400Y8580100D03*
G01X9517400Y9088100D03*
G01X9517400Y9596100D03*
G01X10025400Y2484100D03*
G01X10025400Y2992100D03*
G01X10025400Y4008100D03*
G01X10025400Y5532100D03*
G01X10025400Y6040100D03*
G01X10025400Y6548100D03*
G01X10025400Y7564100D03*
G01X10025400Y8072100D03*
G01X10025400Y8580100D03*
G01X10025400Y9088100D03*
G01X10025400Y9596100D03*
G01X10533400Y2484100D03*
G01X10533400Y2992100D03*
G01X10533400Y3500100D03*
G01X10533400Y6548100D03*
G01X10533400Y7056100D03*
G01X10533400Y7564100D03*
G01X10533400Y8072100D03*
G01X10533400Y8580100D03*
G01X10533400Y9088100D03*
G01X10533400Y9596100D03*
G01X11041400Y2484100D03*
G01X11041400Y2992100D03*
G01X11041400Y3500100D03*
G01X11041400Y4008100D03*
G01X11041400Y4516100D03*
G01X11041400Y5024100D03*
G01X11041400Y5532100D03*
G01X11041400Y6040100D03*
G01X11041400Y6548100D03*
G01X11041400Y7056100D03*
G01X11041400Y7564100D03*
G01X11041400Y8072100D03*
G01X11041400Y8580100D03*
G01X11041400Y9088100D03*
G01X11041400Y9596100D03*
G04 Drill Drawing End*

M02*

